<?xml version="1.0" encoding="utf-8" standalone="no"?>
<!DOCTYPE svg PUBLIC "-//W3C//DTD SVG 1.1//EN"
  "http://www.w3.org/Graphics/SVG/1.1/DTD/svg11.dtd">
<!-- Created with matplotlib (https://matplotlib.org/) -->
<svg height="720pt" version="1.1" viewBox="0 0 28800 720" width="28800pt" xmlns="http://www.w3.org/2000/svg" xmlns:xlink="http://www.w3.org/1999/xlink">
 <metadata>
  <rdf:RDF xmlns:cc="http://creativecommons.org/ns#" xmlns:dc="http://purl.org/dc/elements/1.1/" xmlns:rdf="http://www.w3.org/1999/02/22-rdf-syntax-ns#">
   <cc:Work>
    <dc:type rdf:resource="http://purl.org/dc/dcmitype/StillImage"/>
    <dc:date>2020-12-27T16:49:04.542665</dc:date>
    <dc:format>image/svg+xml</dc:format>
    <dc:creator>
     <cc:Agent>
      <dc:title>Matplotlib v3.3.3, https://matplotlib.org/</dc:title>
     </cc:Agent>
    </dc:creator>
   </cc:Work>
  </rdf:RDF>
 </metadata>
 <defs>
  <style type="text/css">*{stroke-linecap:butt;stroke-linejoin:round;}</style>
 </defs>
 <g id="figure_1">
  <g id="patch_1">
   <path d="M 0 720 
L 28800 720 
L 28800 0 
L 0 0 
z
" style="fill:#ffffff;"/>
  </g>
  <g id="axes_1">
   <g id="patch_2">
    <path clip-path="url(#p7045da7ef2)" d="M 2500.040656 360 
Q 3094.215192 360 3688.054317 360 
" style="fill:none;stroke:#000000;stroke-linecap:round;stroke-width:0.3;"/>
    <path clip-path="url(#p7045da7ef2)" d="M 3687.654317 359.8 
L 3688.054317 360 
L 3687.654317 360.2 
L 3687.654317 359.8 
z
" style="stroke:#000000;stroke-linecap:round;stroke-width:0.3;"/>
   </g>
   <g id="patch_3">
    <path clip-path="url(#p7045da7ef2)" d="M 2500.040656 359.978322 
Q 3689.256356 330.24793 4878.136751 300.52592 
" style="fill:none;stroke:#000000;stroke-linecap:round;stroke-width:0.3;"/>
    <path clip-path="url(#p7045da7ef2)" d="M 4877.731877 300.335979 
L 4878.136751 300.52592 
L 4877.741874 300.735854 
L 4877.731877 300.335979 
z
" style="stroke:#000000;stroke-linecap:round;stroke-width:0.3;"/>
   </g>
   <g id="patch_4">
    <path clip-path="url(#p7045da7ef2)" d="M 3690.123301 359.956645 
Q 4284.297837 330.247918 4878.13738 300.555941 
" style="fill:none;stroke:#000000;stroke-linecap:round;stroke-width:0.3;"/>
    <path clip-path="url(#p7045da7ef2)" d="M 4877.727892 300.376165 
L 4878.13738 300.555941 
L 4877.747867 300.775666 
L 4877.727892 300.376165 
z
" style="stroke:#000000;stroke-linecap:round;stroke-width:0.3;"/>
   </g>
   <g id="patch_5">
    <path clip-path="url(#p7045da7ef2)" d="M 3690.123301 360.043355 
Q 4284.297837 389.752082 4878.13738 419.444059 
" style="fill:none;stroke:#000000;stroke-linecap:round;stroke-width:0.3;"/>
    <path clip-path="url(#p7045da7ef2)" d="M 4877.747867 419.224334 
L 4878.13738 419.444059 
L 4877.727892 419.623835 
L 4877.747867 419.224334 
z
" style="stroke:#000000;stroke-linecap:round;stroke-width:0.3;"/>
   </g>
   <g id="patch_6">
    <path clip-path="url(#p7045da7ef2)" d="M 4880.205946 300.495868 
Q 5474.380481 300.495868 6068.219606 300.495868 
" style="fill:none;stroke:#000000;stroke-linecap:round;stroke-width:0.3;"/>
    <path clip-path="url(#p7045da7ef2)" d="M 6067.819606 300.295868 
L 6068.219606 300.495868 
L 6067.819606 300.695868 
L 6067.819606 300.295868 
z
" style="stroke:#000000;stroke-linecap:round;stroke-width:0.3;"/>
   </g>
   <g id="patch_7">
    <path clip-path="url(#p7045da7ef2)" d="M 4880.205946 300.47419 
Q 6069.421646 270.743798 7258.30204 241.021788 
" style="fill:none;stroke:#000000;stroke-linecap:round;stroke-width:0.3;"/>
    <path clip-path="url(#p7045da7ef2)" d="M 7257.897166 240.831847 
L 7258.30204 241.021788 
L 7257.907163 241.231722 
L 7257.897166 240.831847 
z
" style="stroke:#000000;stroke-linecap:round;stroke-width:0.3;"/>
   </g>
   <g id="patch_8">
    <path clip-path="url(#p7045da7ef2)" d="M 4880.196866 419.41833 
Q 5474.380475 359.999969 6068.230337 300.614983 
" style="fill:none;stroke:#000000;stroke-linecap:round;stroke-width:0.3;"/>
    <path clip-path="url(#p7045da7ef2)" d="M 6067.812422 300.455777 
L 6068.230337 300.614983 
L 6067.852223 300.853792 
L 6067.812422 300.455777 
z
" style="stroke:#000000;stroke-linecap:round;stroke-width:0.3;"/>
   </g>
   <g id="patch_9">
    <path clip-path="url(#p7045da7ef2)" d="M 4880.205946 419.504132 
Q 5474.380481 419.504132 6068.219606 419.504132 
" style="fill:none;stroke:#000000;stroke-linecap:round;stroke-width:0.3;"/>
    <path clip-path="url(#p7045da7ef2)" d="M 6067.819606 419.304132 
L 6068.219606 419.504132 
L 6067.819606 419.704132 
L 6067.819606 419.304132 
z
" style="stroke:#000000;stroke-linecap:round;stroke-width:0.3;"/>
   </g>
   <g id="patch_10">
    <path clip-path="url(#p7045da7ef2)" d="M 6070.28859 300.452513 
Q 6664.463126 270.743786 7258.30267 241.051809 
" style="fill:none;stroke:#000000;stroke-linecap:round;stroke-width:0.3;"/>
    <path clip-path="url(#p7045da7ef2)" d="M 7257.893181 240.872033 
L 7258.30267 241.051809 
L 7257.913156 241.271534 
L 7257.893181 240.872033 
z
" style="stroke:#000000;stroke-linecap:round;stroke-width:0.3;"/>
   </g>
   <g id="patch_11">
    <path clip-path="url(#p7045da7ef2)" d="M 6070.28859 300.539223 
Q 6664.463126 330.24795 7258.30267 359.939927 
" style="fill:none;stroke:#000000;stroke-linecap:round;stroke-width:0.3;"/>
    <path clip-path="url(#p7045da7ef2)" d="M 7257.913156 359.720201 
L 7258.30267 359.939927 
L 7257.893181 360.119702 
L 7257.913156 359.720201 
z
" style="stroke:#000000;stroke-linecap:round;stroke-width:0.3;"/>
   </g>
   <g id="patch_12">
    <path clip-path="url(#p7045da7ef2)" d="M 7260.371235 240.991736 
Q 7854.54577 240.991736 8448.384896 240.991736 
" style="fill:none;stroke:#000000;stroke-linecap:round;stroke-width:0.3;"/>
    <path clip-path="url(#p7045da7ef2)" d="M 8447.984896 240.791736 
L 8448.384896 240.991736 
L 8447.984896 241.191736 
L 8447.984896 240.791736 
z
" style="stroke:#000000;stroke-linecap:round;stroke-width:0.3;"/>
   </g>
   <g id="patch_13">
    <path clip-path="url(#p7045da7ef2)" d="M 7260.371235 240.970058 
Q 8449.586935 211.239665 9638.467329 181.517656 
" style="fill:none;stroke:#000000;stroke-linecap:round;stroke-width:0.3;"/>
    <path clip-path="url(#p7045da7ef2)" d="M 9638.062456 181.327715 
L 9638.467329 181.517656 
L 9638.072453 181.72759 
L 9638.062456 181.327715 
z
" style="stroke:#000000;stroke-linecap:round;stroke-width:0.3;"/>
   </g>
   <g id="patch_14">
    <path clip-path="url(#p7045da7ef2)" d="M 6070.28859 419.460777 
Q 6664.463126 389.75205 7258.30267 360.060073 
" style="fill:none;stroke:#000000;stroke-linecap:round;stroke-width:0.3;"/>
    <path clip-path="url(#p7045da7ef2)" d="M 7257.893181 359.880298 
L 7258.30267 360.060073 
L 7257.913156 360.279799 
L 7257.893181 359.880298 
z
" style="stroke:#000000;stroke-linecap:round;stroke-width:0.3;"/>
   </g>
   <g id="patch_15">
    <path clip-path="url(#p7045da7ef2)" d="M 6070.28859 419.547487 
Q 6664.463126 449.256214 7258.30267 478.948191 
" style="fill:none;stroke:#000000;stroke-linecap:round;stroke-width:0.3;"/>
    <path clip-path="url(#p7045da7ef2)" d="M 7257.913156 478.728466 
L 7258.30267 478.948191 
L 7257.893181 479.127967 
L 7257.913156 478.728466 
z
" style="stroke:#000000;stroke-linecap:round;stroke-width:0.3;"/>
   </g>
   <g id="patch_16">
    <path clip-path="url(#p7045da7ef2)" d="M 7260.362155 359.914198 
Q 7854.545764 300.495837 8448.395627 241.110851 
" style="fill:none;stroke:#000000;stroke-linecap:round;stroke-width:0.3;"/>
    <path clip-path="url(#p7045da7ef2)" d="M 8447.977711 240.951645 
L 8448.395627 241.110851 
L 8448.017513 241.349659 
L 8447.977711 240.951645 
z
" style="stroke:#000000;stroke-linecap:round;stroke-width:0.3;"/>
   </g>
   <g id="patch_17">
    <path clip-path="url(#p7045da7ef2)" d="M 7260.371235 360 
Q 7854.54577 360 8448.384896 360 
" style="fill:none;stroke:#000000;stroke-linecap:round;stroke-width:0.3;"/>
    <path clip-path="url(#p7045da7ef2)" d="M 8447.984896 359.8 
L 8448.384896 360 
L 8447.984896 360.2 
L 8447.984896 359.8 
z
" style="stroke:#000000;stroke-linecap:round;stroke-width:0.3;"/>
   </g>
   <g id="patch_18">
    <path clip-path="url(#p7045da7ef2)" d="M 8450.45388 240.94838 
Q 9044.628415 211.239654 9638.467959 181.547676 
" style="fill:none;stroke:#000000;stroke-linecap:round;stroke-width:0.3;"/>
    <path clip-path="url(#p7045da7ef2)" d="M 9638.05847 181.367901 
L 9638.467959 181.547676 
L 9638.078445 181.767402 
L 9638.05847 181.367901 
z
" style="stroke:#000000;stroke-linecap:round;stroke-width:0.3;"/>
   </g>
   <g id="patch_19">
    <path clip-path="url(#p7045da7ef2)" d="M 8450.45388 241.035091 
Q 9044.628415 270.743817 9638.467959 300.435795 
" style="fill:none;stroke:#000000;stroke-linecap:round;stroke-width:0.3;"/>
    <path clip-path="url(#p7045da7ef2)" d="M 9638.078445 300.216069 
L 9638.467959 300.435795 
L 9638.05847 300.61557 
L 9638.078445 300.216069 
z
" style="stroke:#000000;stroke-linecap:round;stroke-width:0.3;"/>
   </g>
   <g id="patch_20">
    <path clip-path="url(#p7045da7ef2)" d="M 9640.536524 181.487603 
Q 10234.71106 181.487603 10828.550185 181.487603 
" style="fill:none;stroke:#000000;stroke-linecap:round;stroke-width:0.3;"/>
    <path clip-path="url(#p7045da7ef2)" d="M 10828.150185 181.287603 
L 10828.550185 181.487603 
L 10828.150185 181.687603 
L 10828.150185 181.287603 
z
" style="stroke:#000000;stroke-linecap:round;stroke-width:0.3;"/>
   </g>
   <g id="patch_21">
    <path clip-path="url(#p7045da7ef2)" d="M 9640.536524 181.465926 
Q 10829.752224 151.735533 12018.632618 122.013523 
" style="fill:none;stroke:#000000;stroke-linecap:round;stroke-width:0.3;"/>
    <path clip-path="url(#p7045da7ef2)" d="M 12018.227745 121.823583 
L 12018.632618 122.013523 
L 12018.237742 122.223458 
L 12018.227745 121.823583 
z
" style="stroke:#000000;stroke-linecap:round;stroke-width:0.3;"/>
   </g>
   <g id="patch_22">
    <path clip-path="url(#p7045da7ef2)" d="M 7260.362155 478.922462 
Q 7854.545764 419.504101 8448.395627 360.119115 
" style="fill:none;stroke:#000000;stroke-linecap:round;stroke-width:0.3;"/>
    <path clip-path="url(#p7045da7ef2)" d="M 8447.977711 359.959909 
L 8448.395627 360.119115 
L 8448.017513 360.357924 
L 8447.977711 359.959909 
z
" style="stroke:#000000;stroke-linecap:round;stroke-width:0.3;"/>
   </g>
   <g id="patch_23">
    <path clip-path="url(#p7045da7ef2)" d="M 7260.371235 479.008264 
Q 7854.54577 479.008264 8448.384896 479.008264 
" style="fill:none;stroke:#000000;stroke-linecap:round;stroke-width:0.3;"/>
    <path clip-path="url(#p7045da7ef2)" d="M 8447.984896 478.808264 
L 8448.384896 479.008264 
L 8447.984896 479.208264 
L 8447.984896 478.808264 
z
" style="stroke:#000000;stroke-linecap:round;stroke-width:0.3;"/>
   </g>
   <g id="patch_24">
    <path clip-path="url(#p7045da7ef2)" d="M 8450.45388 359.956645 
Q 9044.628415 330.247918 9638.467959 300.555941 
" style="fill:none;stroke:#000000;stroke-linecap:round;stroke-width:0.3;"/>
    <path clip-path="url(#p7045da7ef2)" d="M 9638.05847 300.376165 
L 9638.467959 300.555941 
L 9638.078445 300.775666 
L 9638.05847 300.376165 
z
" style="stroke:#000000;stroke-linecap:round;stroke-width:0.3;"/>
   </g>
   <g id="patch_25">
    <path clip-path="url(#p7045da7ef2)" d="M 8450.45388 360.043355 
Q 9044.628415 389.752082 9638.467959 419.444059 
" style="fill:none;stroke:#000000;stroke-linecap:round;stroke-width:0.3;"/>
    <path clip-path="url(#p7045da7ef2)" d="M 9638.078445 419.224334 
L 9638.467959 419.444059 
L 9638.05847 419.623835 
L 9638.078445 419.224334 
z
" style="stroke:#000000;stroke-linecap:round;stroke-width:0.3;"/>
   </g>
   <g id="patch_26">
    <path clip-path="url(#p7045da7ef2)" d="M 9640.527445 300.410065 
Q 10234.711053 240.991705 10828.560916 181.606718 
" style="fill:none;stroke:#000000;stroke-linecap:round;stroke-width:0.3;"/>
    <path clip-path="url(#p7045da7ef2)" d="M 10828.143 181.447512 
L 10828.560916 181.606718 
L 10828.182802 181.845527 
L 10828.143 181.447512 
z
" style="stroke:#000000;stroke-linecap:round;stroke-width:0.3;"/>
   </g>
   <g id="patch_27">
    <path clip-path="url(#p7045da7ef2)" d="M 9640.536524 300.495868 
Q 10234.71106 300.495868 10828.550185 300.495868 
" style="fill:none;stroke:#000000;stroke-linecap:round;stroke-width:0.3;"/>
    <path clip-path="url(#p7045da7ef2)" d="M 10828.150185 300.295868 
L 10828.550185 300.495868 
L 10828.150185 300.695868 
L 10828.150185 300.295868 
z
" style="stroke:#000000;stroke-linecap:round;stroke-width:0.3;"/>
   </g>
   <g id="patch_28">
    <path clip-path="url(#p7045da7ef2)" d="M 10830.619169 181.444248 
Q 11424.793704 151.735521 12018.633248 122.043544 
" style="fill:none;stroke:#000000;stroke-linecap:round;stroke-width:0.3;"/>
    <path clip-path="url(#p7045da7ef2)" d="M 12018.22376 121.863769 
L 12018.633248 122.043544 
L 12018.243735 122.26327 
L 12018.22376 121.863769 
z
" style="stroke:#000000;stroke-linecap:round;stroke-width:0.3;"/>
   </g>
   <g id="patch_29">
    <path clip-path="url(#p7045da7ef2)" d="M 10830.619169 181.530958 
Q 11424.793704 211.239685 12018.633248 240.931662 
" style="fill:none;stroke:#000000;stroke-linecap:round;stroke-width:0.3;"/>
    <path clip-path="url(#p7045da7ef2)" d="M 12018.243735 240.711937 
L 12018.633248 240.931662 
L 12018.22376 241.111438 
L 12018.243735 240.711937 
z
" style="stroke:#000000;stroke-linecap:round;stroke-width:0.3;"/>
   </g>
   <g id="patch_30">
    <path clip-path="url(#p7045da7ef2)" d="M 12020.701814 121.983471 
Q 12614.876349 121.983471 13208.715474 121.983471 
" style="fill:none;stroke:#000000;stroke-linecap:round;stroke-width:0.3;"/>
    <path clip-path="url(#p7045da7ef2)" d="M 13208.315474 121.783471 
L 13208.715474 121.983471 
L 13208.315474 122.183471 
L 13208.315474 121.783471 
z
" style="stroke:#000000;stroke-linecap:round;stroke-width:0.3;"/>
   </g>
   <g id="patch_31">
    <path clip-path="url(#p7045da7ef2)" d="M 12020.701814 121.961794 
Q 13209.917513 92.231401 14398.797908 62.509391 
" style="fill:none;stroke:#000000;stroke-linecap:round;stroke-width:0.3;"/>
    <path clip-path="url(#p7045da7ef2)" d="M 14398.393034 62.31945 
L 14398.797908 62.509391 
L 14398.403031 62.719326 
L 14398.393034 62.31945 
z
" style="stroke:#000000;stroke-linecap:round;stroke-width:0.3;"/>
   </g>
   <g id="patch_32">
    <path clip-path="url(#p7045da7ef2)" d="M 8450.45388 478.964909 
Q 9044.628415 449.256183 9638.467959 419.564205 
" style="fill:none;stroke:#000000;stroke-linecap:round;stroke-width:0.3;"/>
    <path clip-path="url(#p7045da7ef2)" d="M 9638.05847 419.38443 
L 9638.467959 419.564205 
L 9638.078445 419.783931 
L 9638.05847 419.38443 
z
" style="stroke:#000000;stroke-linecap:round;stroke-width:0.3;"/>
   </g>
   <g id="patch_33">
    <path clip-path="url(#p7045da7ef2)" d="M 8450.45388 479.05162 
Q 9044.628415 508.760346 9638.467959 538.452324 
" style="fill:none;stroke:#000000;stroke-linecap:round;stroke-width:0.3;"/>
    <path clip-path="url(#p7045da7ef2)" d="M 9638.078445 538.232598 
L 9638.467959 538.452324 
L 9638.05847 538.632099 
L 9638.078445 538.232598 
z
" style="stroke:#000000;stroke-linecap:round;stroke-width:0.3;"/>
   </g>
   <g id="patch_34">
    <path clip-path="url(#p7045da7ef2)" d="M 9640.527445 419.41833 
Q 10234.711053 359.999969 10828.560916 300.614983 
" style="fill:none;stroke:#000000;stroke-linecap:round;stroke-width:0.3;"/>
    <path clip-path="url(#p7045da7ef2)" d="M 10828.143 300.455777 
L 10828.560916 300.614983 
L 10828.182802 300.853792 
L 10828.143 300.455777 
z
" style="stroke:#000000;stroke-linecap:round;stroke-width:0.3;"/>
   </g>
   <g id="patch_35">
    <path clip-path="url(#p7045da7ef2)" d="M 9640.536524 419.504132 
Q 10234.71106 419.504132 10828.550185 419.504132 
" style="fill:none;stroke:#000000;stroke-linecap:round;stroke-width:0.3;"/>
    <path clip-path="url(#p7045da7ef2)" d="M 10828.150185 419.304132 
L 10828.550185 419.504132 
L 10828.150185 419.704132 
L 10828.150185 419.304132 
z
" style="stroke:#000000;stroke-linecap:round;stroke-width:0.3;"/>
   </g>
   <g id="patch_36">
    <path clip-path="url(#p7045da7ef2)" d="M 10830.619169 300.452513 
Q 11424.793704 270.743786 12018.633248 241.051809 
" style="fill:none;stroke:#000000;stroke-linecap:round;stroke-width:0.3;"/>
    <path clip-path="url(#p7045da7ef2)" d="M 12018.22376 240.872033 
L 12018.633248 241.051809 
L 12018.243735 241.271534 
L 12018.22376 240.872033 
z
" style="stroke:#000000;stroke-linecap:round;stroke-width:0.3;"/>
   </g>
   <g id="patch_37">
    <path clip-path="url(#p7045da7ef2)" d="M 10830.619169 300.539223 
Q 11424.793704 330.24795 12018.633248 359.939927 
" style="fill:none;stroke:#000000;stroke-linecap:round;stroke-width:0.3;"/>
    <path clip-path="url(#p7045da7ef2)" d="M 12018.243735 359.720201 
L 12018.633248 359.939927 
L 12018.22376 360.119702 
L 12018.243735 359.720201 
z
" style="stroke:#000000;stroke-linecap:round;stroke-width:0.3;"/>
   </g>
   <g id="patch_38">
    <path clip-path="url(#p7045da7ef2)" d="M 12020.692734 240.905933 
Q 12614.876342 181.487572 13208.726205 122.102586 
" style="fill:none;stroke:#000000;stroke-linecap:round;stroke-width:0.3;"/>
    <path clip-path="url(#p7045da7ef2)" d="M 13208.30829 121.94338 
L 13208.726205 122.102586 
L 13208.348091 122.341395 
L 13208.30829 121.94338 
z
" style="stroke:#000000;stroke-linecap:round;stroke-width:0.3;"/>
   </g>
   <g id="patch_39">
    <path clip-path="url(#p7045da7ef2)" d="M 12020.701814 240.991736 
Q 12614.876349 240.991736 13208.715474 240.991736 
" style="fill:none;stroke:#000000;stroke-linecap:round;stroke-width:0.3;"/>
    <path clip-path="url(#p7045da7ef2)" d="M 13208.315474 240.791736 
L 13208.715474 240.991736 
L 13208.315474 241.191736 
L 13208.315474 240.791736 
z
" style="stroke:#000000;stroke-linecap:round;stroke-width:0.3;"/>
   </g>
   <g id="patch_40">
    <path clip-path="url(#p7045da7ef2)" d="M 13210.784458 121.940116 
Q 13804.958994 92.231389 14398.798537 62.539412 
" style="fill:none;stroke:#000000;stroke-linecap:round;stroke-width:0.3;"/>
    <path clip-path="url(#p7045da7ef2)" d="M 14398.389049 62.359637 
L 14398.798537 62.539412 
L 14398.409024 62.759137 
L 14398.389049 62.359637 
z
" style="stroke:#000000;stroke-linecap:round;stroke-width:0.3;"/>
   </g>
   <g id="patch_41">
    <path clip-path="url(#p7045da7ef2)" d="M 13210.784458 122.026826 
Q 13804.958994 151.735553 14398.798537 181.42753 
" style="fill:none;stroke:#000000;stroke-linecap:round;stroke-width:0.3;"/>
    <path clip-path="url(#p7045da7ef2)" d="M 14398.409024 181.207805 
L 14398.798537 181.42753 
L 14398.389049 181.607306 
L 14398.409024 181.207805 
z
" style="stroke:#000000;stroke-linecap:round;stroke-width:0.3;"/>
   </g>
   <g id="patch_42">
    <path clip-path="url(#p7045da7ef2)" d="M 14400.867103 62.522694 
Q 14995.041638 92.231421 15588.881182 121.923398 
" style="fill:none;stroke:#000000;stroke-linecap:round;stroke-width:0.3;"/>
    <path clip-path="url(#p7045da7ef2)" d="M 15588.491669 121.703672 
L 15588.881182 121.923398 
L 15588.471693 122.103173 
L 15588.491669 121.703672 
z
" style="stroke:#000000;stroke-linecap:round;stroke-width:0.3;"/>
   </g>
   <g id="patch_43">
    <path clip-path="url(#p7045da7ef2)" d="M 14400.867103 62.501016 
Q 15590.082803 92.231409 16778.963197 121.953419 
" style="fill:none;stroke:#000000;stroke-linecap:round;stroke-width:0.3;"/>
    <path clip-path="url(#p7045da7ef2)" d="M 16778.56832 121.743484 
L 16778.963197 121.953419 
L 16778.558323 122.143359 
L 16778.56832 121.743484 
z
" style="stroke:#000000;stroke-linecap:round;stroke-width:0.3;"/>
   </g>
   <g id="patch_44">
    <path clip-path="url(#p7045da7ef2)" d="M 9640.527445 538.426594 
Q 10234.711053 479.008234 10828.560916 419.623247 
" style="fill:none;stroke:#000000;stroke-linecap:round;stroke-width:0.3;"/>
    <path clip-path="url(#p7045da7ef2)" d="M 10828.143 419.464041 
L 10828.560916 419.623247 
L 10828.182802 419.862056 
L 10828.143 419.464041 
z
" style="stroke:#000000;stroke-linecap:round;stroke-width:0.3;"/>
   </g>
   <g id="patch_45">
    <path clip-path="url(#p7045da7ef2)" d="M 9640.536524 538.512397 
Q 10234.71106 538.512397 10828.550185 538.512397 
" style="fill:none;stroke:#000000;stroke-linecap:round;stroke-width:0.3;"/>
    <path clip-path="url(#p7045da7ef2)" d="M 10828.150185 538.312397 
L 10828.550185 538.512397 
L 10828.150185 538.712397 
L 10828.150185 538.312397 
z
" style="stroke:#000000;stroke-linecap:round;stroke-width:0.3;"/>
   </g>
   <g id="patch_46">
    <path clip-path="url(#p7045da7ef2)" d="M 10830.619169 419.460777 
Q 11424.793704 389.75205 12018.633248 360.060073 
" style="fill:none;stroke:#000000;stroke-linecap:round;stroke-width:0.3;"/>
    <path clip-path="url(#p7045da7ef2)" d="M 12018.22376 359.880298 
L 12018.633248 360.060073 
L 12018.243735 360.279799 
L 12018.22376 359.880298 
z
" style="stroke:#000000;stroke-linecap:round;stroke-width:0.3;"/>
   </g>
   <g id="patch_47">
    <path clip-path="url(#p7045da7ef2)" d="M 10830.619169 419.547487 
Q 11424.793704 449.256214 12018.633248 478.948191 
" style="fill:none;stroke:#000000;stroke-linecap:round;stroke-width:0.3;"/>
    <path clip-path="url(#p7045da7ef2)" d="M 12018.243735 478.728466 
L 12018.633248 478.948191 
L 12018.22376 479.127967 
L 12018.243735 478.728466 
z
" style="stroke:#000000;stroke-linecap:round;stroke-width:0.3;"/>
   </g>
   <g id="patch_48">
    <path clip-path="url(#p7045da7ef2)" d="M 12020.692734 359.914198 
Q 12614.876342 300.495837 13208.726205 241.110851 
" style="fill:none;stroke:#000000;stroke-linecap:round;stroke-width:0.3;"/>
    <path clip-path="url(#p7045da7ef2)" d="M 13208.30829 240.951645 
L 13208.726205 241.110851 
L 13208.348091 241.349659 
L 13208.30829 240.951645 
z
" style="stroke:#000000;stroke-linecap:round;stroke-width:0.3;"/>
   </g>
   <g id="patch_49">
    <path clip-path="url(#p7045da7ef2)" d="M 12020.701814 360 
Q 12614.876349 360 13208.715474 360 
" style="fill:none;stroke:#000000;stroke-linecap:round;stroke-width:0.3;"/>
    <path clip-path="url(#p7045da7ef2)" d="M 13208.315474 359.8 
L 13208.715474 360 
L 13208.315474 360.2 
L 13208.315474 359.8 
z
" style="stroke:#000000;stroke-linecap:round;stroke-width:0.3;"/>
   </g>
   <g id="patch_50">
    <path clip-path="url(#p7045da7ef2)" d="M 13210.784458 240.94838 
Q 13804.958994 211.239654 14398.798537 181.547676 
" style="fill:none;stroke:#000000;stroke-linecap:round;stroke-width:0.3;"/>
    <path clip-path="url(#p7045da7ef2)" d="M 14398.389049 181.367901 
L 14398.798537 181.547676 
L 14398.409024 181.767402 
L 14398.389049 181.367901 
z
" style="stroke:#000000;stroke-linecap:round;stroke-width:0.3;"/>
   </g>
   <g id="patch_51">
    <path clip-path="url(#p7045da7ef2)" d="M 13210.784458 241.035091 
Q 13804.958994 270.743817 14398.798537 300.435795 
" style="fill:none;stroke:#000000;stroke-linecap:round;stroke-width:0.3;"/>
    <path clip-path="url(#p7045da7ef2)" d="M 14398.409024 300.216069 
L 14398.798537 300.435795 
L 14398.389049 300.61557 
L 14398.409024 300.216069 
z
" style="stroke:#000000;stroke-linecap:round;stroke-width:0.3;"/>
   </g>
   <g id="patch_52">
    <path clip-path="url(#p7045da7ef2)" d="M 14400.867103 181.444248 
Q 14995.041638 151.735521 15588.881182 122.043544 
" style="fill:none;stroke:#000000;stroke-linecap:round;stroke-width:0.3;"/>
    <path clip-path="url(#p7045da7ef2)" d="M 15588.471693 121.863769 
L 15588.881182 122.043544 
L 15588.491669 122.26327 
L 15588.471693 121.863769 
z
" style="stroke:#000000;stroke-linecap:round;stroke-width:0.3;"/>
   </g>
   <g id="patch_53">
    <path clip-path="url(#p7045da7ef2)" d="M 14400.867103 181.530958 
Q 14995.041638 211.239685 15588.881182 240.931662 
" style="fill:none;stroke:#000000;stroke-linecap:round;stroke-width:0.3;"/>
    <path clip-path="url(#p7045da7ef2)" d="M 15588.491669 240.711937 
L 15588.881182 240.931662 
L 15588.471693 241.111438 
L 15588.491669 240.711937 
z
" style="stroke:#000000;stroke-linecap:round;stroke-width:0.3;"/>
   </g>
   <g id="patch_54">
    <path clip-path="url(#p7045da7ef2)" d="M 15590.949747 121.983471 
Q 16185.124283 121.983471 16778.963408 121.983471 
" style="fill:none;stroke:#000000;stroke-linecap:round;stroke-width:0.3;"/>
    <path clip-path="url(#p7045da7ef2)" d="M 16778.563408 121.783471 
L 16778.963408 121.983471 
L 16778.563408 122.183471 
L 16778.563408 121.783471 
z
" style="stroke:#000000;stroke-linecap:round;stroke-width:0.3;"/>
   </g>
   <g id="patch_55">
    <path clip-path="url(#p7045da7ef2)" d="M 15590.940668 122.069273 
Q 16185.124276 181.487634 16778.974139 240.872621 
" style="fill:none;stroke:#000000;stroke-linecap:round;stroke-width:0.3;"/>
    <path clip-path="url(#p7045da7ef2)" d="M 16778.596025 240.633812 
L 16778.974139 240.872621 
L 16778.556223 241.031826 
L 16778.596025 240.633812 
z
" style="stroke:#000000;stroke-linecap:round;stroke-width:0.3;"/>
   </g>
   <g id="patch_56">
    <path clip-path="url(#p7045da7ef2)" d="M 16781.032392 122.026826 
Q 17375.206927 151.735553 17969.046471 181.42753 
" style="fill:none;stroke:#000000;stroke-linecap:round;stroke-width:0.3;"/>
    <path clip-path="url(#p7045da7ef2)" d="M 17968.656958 181.207805 
L 17969.046471 181.42753 
L 17968.636983 181.607306 
L 17968.656958 181.207805 
z
" style="stroke:#000000;stroke-linecap:round;stroke-width:0.3;"/>
   </g>
   <g id="patch_57">
    <path clip-path="url(#p7045da7ef2)" d="M 16781.032392 122.005149 
Q 17970.248092 151.735541 19159.128486 181.457551 
" style="fill:none;stroke:#000000;stroke-linecap:round;stroke-width:0.3;"/>
    <path clip-path="url(#p7045da7ef2)" d="M 19158.73361 181.247617 
L 19159.128486 181.457551 
L 19158.723613 181.647492 
L 19158.73361 181.247617 
z
" style="stroke:#000000;stroke-linecap:round;stroke-width:0.3;"/>
   </g>
   <g id="patch_58">
    <path clip-path="url(#p7045da7ef2)" d="M 10830.619169 538.469042 
Q 11424.793704 508.760315 12018.633248 479.068338 
" style="fill:none;stroke:#000000;stroke-linecap:round;stroke-width:0.3;"/>
    <path clip-path="url(#p7045da7ef2)" d="M 12018.22376 478.888562 
L 12018.633248 479.068338 
L 12018.243735 479.288063 
L 12018.22376 478.888562 
z
" style="stroke:#000000;stroke-linecap:round;stroke-width:0.3;"/>
   </g>
   <g id="patch_59">
    <path clip-path="url(#p7045da7ef2)" d="M 10830.619169 538.555752 
Q 11424.793704 568.264479 12018.633248 597.956456 
" style="fill:none;stroke:#000000;stroke-linecap:round;stroke-width:0.3;"/>
    <path clip-path="url(#p7045da7ef2)" d="M 12018.243735 597.73673 
L 12018.633248 597.956456 
L 12018.22376 598.136231 
L 12018.243735 597.73673 
z
" style="stroke:#000000;stroke-linecap:round;stroke-width:0.3;"/>
   </g>
   <g id="patch_60">
    <path clip-path="url(#p7045da7ef2)" d="M 12020.692734 478.922462 
Q 12614.876342 419.504101 13208.726205 360.119115 
" style="fill:none;stroke:#000000;stroke-linecap:round;stroke-width:0.3;"/>
    <path clip-path="url(#p7045da7ef2)" d="M 13208.30829 359.959909 
L 13208.726205 360.119115 
L 13208.348091 360.357924 
L 13208.30829 359.959909 
z
" style="stroke:#000000;stroke-linecap:round;stroke-width:0.3;"/>
   </g>
   <g id="patch_61">
    <path clip-path="url(#p7045da7ef2)" d="M 12020.701814 479.008264 
Q 12614.876349 479.008264 13208.715474 479.008264 
" style="fill:none;stroke:#000000;stroke-linecap:round;stroke-width:0.3;"/>
    <path clip-path="url(#p7045da7ef2)" d="M 13208.315474 478.808264 
L 13208.715474 479.008264 
L 13208.315474 479.208264 
L 13208.315474 478.808264 
z
" style="stroke:#000000;stroke-linecap:round;stroke-width:0.3;"/>
   </g>
   <g id="patch_62">
    <path clip-path="url(#p7045da7ef2)" d="M 13210.784458 359.956645 
Q 13804.958994 330.247918 14398.798537 300.555941 
" style="fill:none;stroke:#000000;stroke-linecap:round;stroke-width:0.3;"/>
    <path clip-path="url(#p7045da7ef2)" d="M 14398.389049 300.376165 
L 14398.798537 300.555941 
L 14398.409024 300.775666 
L 14398.389049 300.376165 
z
" style="stroke:#000000;stroke-linecap:round;stroke-width:0.3;"/>
   </g>
   <g id="patch_63">
    <path clip-path="url(#p7045da7ef2)" d="M 13210.784458 360.043355 
Q 13804.958994 389.752082 14398.798537 419.444059 
" style="fill:none;stroke:#000000;stroke-linecap:round;stroke-width:0.3;"/>
    <path clip-path="url(#p7045da7ef2)" d="M 14398.409024 419.224334 
L 14398.798537 419.444059 
L 14398.389049 419.623835 
L 14398.409024 419.224334 
z
" style="stroke:#000000;stroke-linecap:round;stroke-width:0.3;"/>
   </g>
   <g id="patch_64">
    <path clip-path="url(#p7045da7ef2)" d="M 14400.867103 300.452513 
Q 14995.041638 270.743786 15588.881182 241.051809 
" style="fill:none;stroke:#000000;stroke-linecap:round;stroke-width:0.3;"/>
    <path clip-path="url(#p7045da7ef2)" d="M 15588.471693 240.872033 
L 15588.881182 241.051809 
L 15588.491669 241.271534 
L 15588.471693 240.872033 
z
" style="stroke:#000000;stroke-linecap:round;stroke-width:0.3;"/>
   </g>
   <g id="patch_65">
    <path clip-path="url(#p7045da7ef2)" d="M 14400.867103 300.539223 
Q 14995.041638 330.24795 15588.881182 359.939927 
" style="fill:none;stroke:#000000;stroke-linecap:round;stroke-width:0.3;"/>
    <path clip-path="url(#p7045da7ef2)" d="M 15588.491669 359.720201 
L 15588.881182 359.939927 
L 15588.471693 360.119702 
L 15588.491669 359.720201 
z
" style="stroke:#000000;stroke-linecap:round;stroke-width:0.3;"/>
   </g>
   <g id="patch_66">
    <path clip-path="url(#p7045da7ef2)" d="M 15590.949747 240.991736 
Q 16185.124283 240.991736 16778.963408 240.991736 
" style="fill:none;stroke:#000000;stroke-linecap:round;stroke-width:0.3;"/>
    <path clip-path="url(#p7045da7ef2)" d="M 16778.563408 240.791736 
L 16778.963408 240.991736 
L 16778.563408 241.191736 
L 16778.563408 240.791736 
z
" style="stroke:#000000;stroke-linecap:round;stroke-width:0.3;"/>
   </g>
   <g id="patch_67">
    <path clip-path="url(#p7045da7ef2)" d="M 15590.940668 241.077538 
Q 16185.124276 300.495899 16778.974139 359.880885 
" style="fill:none;stroke:#000000;stroke-linecap:round;stroke-width:0.3;"/>
    <path clip-path="url(#p7045da7ef2)" d="M 16778.596025 359.642076 
L 16778.974139 359.880885 
L 16778.556223 360.040091 
L 16778.596025 359.642076 
z
" style="stroke:#000000;stroke-linecap:round;stroke-width:0.3;"/>
   </g>
   <g id="patch_68">
    <path clip-path="url(#p7045da7ef2)" d="M 16781.032392 240.94838 
Q 17375.206927 211.239654 17969.046471 181.547676 
" style="fill:none;stroke:#000000;stroke-linecap:round;stroke-width:0.3;"/>
    <path clip-path="url(#p7045da7ef2)" d="M 17968.636983 181.367901 
L 17969.046471 181.547676 
L 17968.656958 181.767402 
L 17968.636983 181.367901 
z
" style="stroke:#000000;stroke-linecap:round;stroke-width:0.3;"/>
   </g>
   <g id="patch_69">
    <path clip-path="url(#p7045da7ef2)" d="M 16781.032392 241.035091 
Q 17375.206927 270.743817 17969.046471 300.435795 
" style="fill:none;stroke:#000000;stroke-linecap:round;stroke-width:0.3;"/>
    <path clip-path="url(#p7045da7ef2)" d="M 17968.656958 300.216069 
L 17969.046471 300.435795 
L 17968.636983 300.61557 
L 17968.656958 300.216069 
z
" style="stroke:#000000;stroke-linecap:round;stroke-width:0.3;"/>
   </g>
   <g id="patch_70">
    <path clip-path="url(#p7045da7ef2)" d="M 17971.115037 181.487603 
Q 18565.289572 181.487603 19159.128697 181.487603 
" style="fill:none;stroke:#000000;stroke-linecap:round;stroke-width:0.3;"/>
    <path clip-path="url(#p7045da7ef2)" d="M 19158.728697 181.287603 
L 19159.128697 181.487603 
L 19158.728697 181.687603 
L 19158.728697 181.287603 
z
" style="stroke:#000000;stroke-linecap:round;stroke-width:0.3;"/>
   </g>
   <g id="patch_71">
    <path clip-path="url(#p7045da7ef2)" d="M 17971.105957 181.573406 
Q 18565.289566 240.991766 19159.139428 300.376753 
" style="fill:none;stroke:#000000;stroke-linecap:round;stroke-width:0.3;"/>
    <path clip-path="url(#p7045da7ef2)" d="M 19158.761314 300.137944 
L 19159.139428 300.376753 
L 19158.721513 300.535959 
L 19158.761314 300.137944 
z
" style="stroke:#000000;stroke-linecap:round;stroke-width:0.3;"/>
   </g>
   <g id="patch_72">
    <path clip-path="url(#p7045da7ef2)" d="M 19161.197681 181.530958 
Q 19755.372217 211.239685 20349.21176 240.931662 
" style="fill:none;stroke:#000000;stroke-linecap:round;stroke-width:0.3;"/>
    <path clip-path="url(#p7045da7ef2)" d="M 20348.822247 240.711937 
L 20349.21176 240.931662 
L 20348.802272 241.111438 
L 20348.822247 240.711937 
z
" style="stroke:#000000;stroke-linecap:round;stroke-width:0.3;"/>
   </g>
   <g id="patch_73">
    <path clip-path="url(#p7045da7ef2)" d="M 19161.197681 181.509281 
Q 20350.413381 211.239673 21539.293775 240.961683 
" style="fill:none;stroke:#000000;stroke-linecap:round;stroke-width:0.3;"/>
    <path clip-path="url(#p7045da7ef2)" d="M 21538.898899 240.751749 
L 21539.293775 240.961683 
L 21538.888902 241.151624 
L 21538.898899 240.751749 
z
" style="stroke:#000000;stroke-linecap:round;stroke-width:0.3;"/>
   </g>
   <g id="patch_74">
    <path clip-path="url(#p7045da7ef2)" d="M 12020.692734 597.930727 
Q 12614.876342 538.512366 13208.726205 479.127379 
" style="fill:none;stroke:#000000;stroke-linecap:round;stroke-width:0.3;"/>
    <path clip-path="url(#p7045da7ef2)" d="M 13208.30829 478.968174 
L 13208.726205 479.127379 
L 13208.348091 479.366188 
L 13208.30829 478.968174 
z
" style="stroke:#000000;stroke-linecap:round;stroke-width:0.3;"/>
   </g>
   <g id="patch_75">
    <path clip-path="url(#p7045da7ef2)" d="M 12020.701814 598.016529 
Q 12614.876349 598.016529 13208.715474 598.016529 
" style="fill:none;stroke:#000000;stroke-linecap:round;stroke-width:0.3;"/>
    <path clip-path="url(#p7045da7ef2)" d="M 13208.315474 597.816529 
L 13208.715474 598.016529 
L 13208.315474 598.216529 
L 13208.315474 597.816529 
z
" style="stroke:#000000;stroke-linecap:round;stroke-width:0.3;"/>
   </g>
   <g id="patch_76">
    <path clip-path="url(#p7045da7ef2)" d="M 13210.784458 478.964909 
Q 13804.958994 449.256183 14398.798537 419.564205 
" style="fill:none;stroke:#000000;stroke-linecap:round;stroke-width:0.3;"/>
    <path clip-path="url(#p7045da7ef2)" d="M 14398.389049 419.38443 
L 14398.798537 419.564205 
L 14398.409024 419.783931 
L 14398.389049 419.38443 
z
" style="stroke:#000000;stroke-linecap:round;stroke-width:0.3;"/>
   </g>
   <g id="patch_77">
    <path clip-path="url(#p7045da7ef2)" d="M 13210.784458 479.05162 
Q 13804.958994 508.760346 14398.798537 538.452324 
" style="fill:none;stroke:#000000;stroke-linecap:round;stroke-width:0.3;"/>
    <path clip-path="url(#p7045da7ef2)" d="M 14398.409024 538.232598 
L 14398.798537 538.452324 
L 14398.389049 538.632099 
L 14398.409024 538.232598 
z
" style="stroke:#000000;stroke-linecap:round;stroke-width:0.3;"/>
   </g>
   <g id="patch_78">
    <path clip-path="url(#p7045da7ef2)" d="M 14400.867103 419.460777 
Q 14995.041638 389.75205 15588.881182 360.060073 
" style="fill:none;stroke:#000000;stroke-linecap:round;stroke-width:0.3;"/>
    <path clip-path="url(#p7045da7ef2)" d="M 15588.471693 359.880298 
L 15588.881182 360.060073 
L 15588.491669 360.279799 
L 15588.471693 359.880298 
z
" style="stroke:#000000;stroke-linecap:round;stroke-width:0.3;"/>
   </g>
   <g id="patch_79">
    <path clip-path="url(#p7045da7ef2)" d="M 14400.867103 419.547487 
Q 14995.041638 449.256214 15588.881182 478.948191 
" style="fill:none;stroke:#000000;stroke-linecap:round;stroke-width:0.3;"/>
    <path clip-path="url(#p7045da7ef2)" d="M 15588.491669 478.728466 
L 15588.881182 478.948191 
L 15588.471693 479.127967 
L 15588.491669 478.728466 
z
" style="stroke:#000000;stroke-linecap:round;stroke-width:0.3;"/>
   </g>
   <g id="patch_80">
    <path clip-path="url(#p7045da7ef2)" d="M 15590.949747 360 
Q 16185.124283 360 16778.963408 360 
" style="fill:none;stroke:#000000;stroke-linecap:round;stroke-width:0.3;"/>
    <path clip-path="url(#p7045da7ef2)" d="M 16778.563408 359.8 
L 16778.963408 360 
L 16778.563408 360.2 
L 16778.563408 359.8 
z
" style="stroke:#000000;stroke-linecap:round;stroke-width:0.3;"/>
   </g>
   <g id="patch_81">
    <path clip-path="url(#p7045da7ef2)" d="M 15590.940668 360.085802 
Q 16185.124276 419.504163 16778.974139 478.889149 
" style="fill:none;stroke:#000000;stroke-linecap:round;stroke-width:0.3;"/>
    <path clip-path="url(#p7045da7ef2)" d="M 16778.596025 478.650341 
L 16778.974139 478.889149 
L 16778.556223 479.048355 
L 16778.596025 478.650341 
z
" style="stroke:#000000;stroke-linecap:round;stroke-width:0.3;"/>
   </g>
   <g id="patch_82">
    <path clip-path="url(#p7045da7ef2)" d="M 16781.032392 359.956645 
Q 17375.206927 330.247918 17969.046471 300.555941 
" style="fill:none;stroke:#000000;stroke-linecap:round;stroke-width:0.3;"/>
    <path clip-path="url(#p7045da7ef2)" d="M 17968.636983 300.376165 
L 17969.046471 300.555941 
L 17968.656958 300.775666 
L 17968.636983 300.376165 
z
" style="stroke:#000000;stroke-linecap:round;stroke-width:0.3;"/>
   </g>
   <g id="patch_83">
    <path clip-path="url(#p7045da7ef2)" d="M 16781.032392 360.043355 
Q 17375.206927 389.752082 17969.046471 419.444059 
" style="fill:none;stroke:#000000;stroke-linecap:round;stroke-width:0.3;"/>
    <path clip-path="url(#p7045da7ef2)" d="M 17968.656958 419.224334 
L 17969.046471 419.444059 
L 17968.636983 419.623835 
L 17968.656958 419.224334 
z
" style="stroke:#000000;stroke-linecap:round;stroke-width:0.3;"/>
   </g>
   <g id="patch_84">
    <path clip-path="url(#p7045da7ef2)" d="M 17971.115037 300.495868 
Q 18565.289572 300.495868 19159.128697 300.495868 
" style="fill:none;stroke:#000000;stroke-linecap:round;stroke-width:0.3;"/>
    <path clip-path="url(#p7045da7ef2)" d="M 19158.728697 300.295868 
L 19159.128697 300.495868 
L 19158.728697 300.695868 
L 19158.728697 300.295868 
z
" style="stroke:#000000;stroke-linecap:round;stroke-width:0.3;"/>
   </g>
   <g id="patch_85">
    <path clip-path="url(#p7045da7ef2)" d="M 17971.105957 300.58167 
Q 18565.289566 360.000031 19159.139428 419.385017 
" style="fill:none;stroke:#000000;stroke-linecap:round;stroke-width:0.3;"/>
    <path clip-path="url(#p7045da7ef2)" d="M 19158.761314 419.146208 
L 19159.139428 419.385017 
L 19158.721513 419.544223 
L 19158.761314 419.146208 
z
" style="stroke:#000000;stroke-linecap:round;stroke-width:0.3;"/>
   </g>
   <g id="patch_86">
    <path clip-path="url(#p7045da7ef2)" d="M 19161.197681 300.452513 
Q 19755.372217 270.743786 20349.21176 241.051809 
" style="fill:none;stroke:#000000;stroke-linecap:round;stroke-width:0.3;"/>
    <path clip-path="url(#p7045da7ef2)" d="M 20348.802272 240.872033 
L 20349.21176 241.051809 
L 20348.822247 241.271534 
L 20348.802272 240.872033 
z
" style="stroke:#000000;stroke-linecap:round;stroke-width:0.3;"/>
   </g>
   <g id="patch_87">
    <path clip-path="url(#p7045da7ef2)" d="M 19161.197681 300.539223 
Q 19755.372217 330.24795 20349.21176 359.939927 
" style="fill:none;stroke:#000000;stroke-linecap:round;stroke-width:0.3;"/>
    <path clip-path="url(#p7045da7ef2)" d="M 20348.822247 359.720201 
L 20349.21176 359.939927 
L 20348.802272 360.119702 
L 20348.822247 359.720201 
z
" style="stroke:#000000;stroke-linecap:round;stroke-width:0.3;"/>
   </g>
   <g id="patch_88">
    <path clip-path="url(#p7045da7ef2)" d="M 20351.280326 240.991736 
Q 20945.454861 240.991736 21539.293987 240.991736 
" style="fill:none;stroke:#000000;stroke-linecap:round;stroke-width:0.3;"/>
    <path clip-path="url(#p7045da7ef2)" d="M 21538.893987 240.791736 
L 21539.293987 240.991736 
L 21538.893987 241.191736 
L 21538.893987 240.791736 
z
" style="stroke:#000000;stroke-linecap:round;stroke-width:0.3;"/>
   </g>
   <g id="patch_89">
    <path clip-path="url(#p7045da7ef2)" d="M 20351.271246 241.077538 
Q 20945.454855 300.495899 21539.304718 359.880885 
" style="fill:none;stroke:#000000;stroke-linecap:round;stroke-width:0.3;"/>
    <path clip-path="url(#p7045da7ef2)" d="M 21538.926603 359.642076 
L 21539.304718 359.880885 
L 21538.886802 360.040091 
L 21538.926603 359.642076 
z
" style="stroke:#000000;stroke-linecap:round;stroke-width:0.3;"/>
   </g>
   <g id="patch_90">
    <path clip-path="url(#p7045da7ef2)" d="M 21541.362971 241.035091 
Q 22135.537506 270.743817 22729.37705 300.435795 
" style="fill:none;stroke:#000000;stroke-linecap:round;stroke-width:0.3;"/>
    <path clip-path="url(#p7045da7ef2)" d="M 22728.987536 300.216069 
L 22729.37705 300.435795 
L 22728.967561 300.61557 
L 22728.987536 300.216069 
z
" style="stroke:#000000;stroke-linecap:round;stroke-width:0.3;"/>
   </g>
   <g id="patch_91">
    <path clip-path="url(#p7045da7ef2)" d="M 21541.362971 241.013413 
Q 22730.57867 270.743806 23919.459065 300.465815 
" style="fill:none;stroke:#000000;stroke-linecap:round;stroke-width:0.3;"/>
    <path clip-path="url(#p7045da7ef2)" d="M 23919.064188 300.255881 
L 23919.459065 300.465815 
L 23919.054191 300.655756 
L 23919.064188 300.255881 
z
" style="stroke:#000000;stroke-linecap:round;stroke-width:0.3;"/>
   </g>
   <g id="patch_92">
    <path clip-path="url(#p7045da7ef2)" d="M 13210.784458 597.973174 
Q 13804.958994 568.264447 14398.798537 538.57247 
" style="fill:none;stroke:#000000;stroke-linecap:round;stroke-width:0.3;"/>
    <path clip-path="url(#p7045da7ef2)" d="M 14398.389049 538.392694 
L 14398.798537 538.57247 
L 14398.409024 538.792195 
L 14398.389049 538.392694 
z
" style="stroke:#000000;stroke-linecap:round;stroke-width:0.3;"/>
   </g>
   <g id="patch_93">
    <path clip-path="url(#p7045da7ef2)" d="M 13210.784458 598.059884 
Q 13804.958994 627.768611 14398.798537 657.460588 
" style="fill:none;stroke:#000000;stroke-linecap:round;stroke-width:0.3;"/>
    <path clip-path="url(#p7045da7ef2)" d="M 14398.409024 657.240863 
L 14398.798537 657.460588 
L 14398.389049 657.640363 
L 14398.409024 657.240863 
z
" style="stroke:#000000;stroke-linecap:round;stroke-width:0.3;"/>
   </g>
   <g id="patch_94">
    <path clip-path="url(#p7045da7ef2)" d="M 14400.867103 538.469042 
Q 14995.041638 508.760315 15588.881182 479.068338 
" style="fill:none;stroke:#000000;stroke-linecap:round;stroke-width:0.3;"/>
    <path clip-path="url(#p7045da7ef2)" d="M 15588.471693 478.888562 
L 15588.881182 479.068338 
L 15588.491669 479.288063 
L 15588.471693 478.888562 
z
" style="stroke:#000000;stroke-linecap:round;stroke-width:0.3;"/>
   </g>
   <g id="patch_95">
    <path clip-path="url(#p7045da7ef2)" d="M 14400.867103 538.555752 
Q 14995.041638 568.264479 15588.881182 597.956456 
" style="fill:none;stroke:#000000;stroke-linecap:round;stroke-width:0.3;"/>
    <path clip-path="url(#p7045da7ef2)" d="M 15588.491669 597.73673 
L 15588.881182 597.956456 
L 15588.471693 598.136231 
L 15588.491669 597.73673 
z
" style="stroke:#000000;stroke-linecap:round;stroke-width:0.3;"/>
   </g>
   <g id="patch_96">
    <path clip-path="url(#p7045da7ef2)" d="M 15590.949747 479.008264 
Q 16185.124283 479.008264 16778.963408 479.008264 
" style="fill:none;stroke:#000000;stroke-linecap:round;stroke-width:0.3;"/>
    <path clip-path="url(#p7045da7ef2)" d="M 16778.563408 478.808264 
L 16778.963408 479.008264 
L 16778.563408 479.208264 
L 16778.563408 478.808264 
z
" style="stroke:#000000;stroke-linecap:round;stroke-width:0.3;"/>
   </g>
   <g id="patch_97">
    <path clip-path="url(#p7045da7ef2)" d="M 15590.940668 479.094067 
Q 16185.124276 538.512428 16778.974139 597.897414 
" style="fill:none;stroke:#000000;stroke-linecap:round;stroke-width:0.3;"/>
    <path clip-path="url(#p7045da7ef2)" d="M 16778.596025 597.658605 
L 16778.974139 597.897414 
L 16778.556223 598.05662 
L 16778.596025 597.658605 
z
" style="stroke:#000000;stroke-linecap:round;stroke-width:0.3;"/>
   </g>
   <g id="patch_98">
    <path clip-path="url(#p7045da7ef2)" d="M 16781.032392 478.964909 
Q 17375.206927 449.256183 17969.046471 419.564205 
" style="fill:none;stroke:#000000;stroke-linecap:round;stroke-width:0.3;"/>
    <path clip-path="url(#p7045da7ef2)" d="M 17968.636983 419.38443 
L 17969.046471 419.564205 
L 17968.656958 419.783931 
L 17968.636983 419.38443 
z
" style="stroke:#000000;stroke-linecap:round;stroke-width:0.3;"/>
   </g>
   <g id="patch_99">
    <path clip-path="url(#p7045da7ef2)" d="M 16781.032392 479.05162 
Q 17375.206927 508.760346 17969.046471 538.452324 
" style="fill:none;stroke:#000000;stroke-linecap:round;stroke-width:0.3;"/>
    <path clip-path="url(#p7045da7ef2)" d="M 17968.656958 538.232598 
L 17969.046471 538.452324 
L 17968.636983 538.632099 
L 17968.656958 538.232598 
z
" style="stroke:#000000;stroke-linecap:round;stroke-width:0.3;"/>
   </g>
   <g id="patch_100">
    <path clip-path="url(#p7045da7ef2)" d="M 17971.115037 419.504132 
Q 18565.289572 419.504132 19159.128697 419.504132 
" style="fill:none;stroke:#000000;stroke-linecap:round;stroke-width:0.3;"/>
    <path clip-path="url(#p7045da7ef2)" d="M 19158.728697 419.304132 
L 19159.128697 419.504132 
L 19158.728697 419.704132 
L 19158.728697 419.304132 
z
" style="stroke:#000000;stroke-linecap:round;stroke-width:0.3;"/>
   </g>
   <g id="patch_101">
    <path clip-path="url(#p7045da7ef2)" d="M 17971.105957 419.589935 
Q 18565.289566 479.008295 19159.139428 538.393282 
" style="fill:none;stroke:#000000;stroke-linecap:round;stroke-width:0.3;"/>
    <path clip-path="url(#p7045da7ef2)" d="M 19158.761314 538.154473 
L 19159.139428 538.393282 
L 19158.721513 538.552488 
L 19158.761314 538.154473 
z
" style="stroke:#000000;stroke-linecap:round;stroke-width:0.3;"/>
   </g>
   <g id="patch_102">
    <path clip-path="url(#p7045da7ef2)" d="M 19161.197681 419.460777 
Q 19755.372217 389.75205 20349.21176 360.060073 
" style="fill:none;stroke:#000000;stroke-linecap:round;stroke-width:0.3;"/>
    <path clip-path="url(#p7045da7ef2)" d="M 20348.802272 359.880298 
L 20349.21176 360.060073 
L 20348.822247 360.279799 
L 20348.802272 359.880298 
z
" style="stroke:#000000;stroke-linecap:round;stroke-width:0.3;"/>
   </g>
   <g id="patch_103">
    <path clip-path="url(#p7045da7ef2)" d="M 19161.197681 419.547487 
Q 19755.372217 449.256214 20349.21176 478.948191 
" style="fill:none;stroke:#000000;stroke-linecap:round;stroke-width:0.3;"/>
    <path clip-path="url(#p7045da7ef2)" d="M 20348.822247 478.728466 
L 20349.21176 478.948191 
L 20348.802272 479.127967 
L 20348.822247 478.728466 
z
" style="stroke:#000000;stroke-linecap:round;stroke-width:0.3;"/>
   </g>
   <g id="patch_104">
    <path clip-path="url(#p7045da7ef2)" d="M 20351.280326 360 
Q 20945.454861 360 21539.293987 360 
" style="fill:none;stroke:#000000;stroke-linecap:round;stroke-width:0.3;"/>
    <path clip-path="url(#p7045da7ef2)" d="M 21538.893987 359.8 
L 21539.293987 360 
L 21538.893987 360.2 
L 21538.893987 359.8 
z
" style="stroke:#000000;stroke-linecap:round;stroke-width:0.3;"/>
   </g>
   <g id="patch_105">
    <path clip-path="url(#p7045da7ef2)" d="M 20351.271246 360.085802 
Q 20945.454855 419.504163 21539.304718 478.889149 
" style="fill:none;stroke:#000000;stroke-linecap:round;stroke-width:0.3;"/>
    <path clip-path="url(#p7045da7ef2)" d="M 21538.926603 478.650341 
L 21539.304718 478.889149 
L 21538.886802 479.048355 
L 21538.926603 478.650341 
z
" style="stroke:#000000;stroke-linecap:round;stroke-width:0.3;"/>
   </g>
   <g id="patch_106">
    <path clip-path="url(#p7045da7ef2)" d="M 21541.362971 359.956645 
Q 22135.537506 330.247918 22729.37705 300.555941 
" style="fill:none;stroke:#000000;stroke-linecap:round;stroke-width:0.3;"/>
    <path clip-path="url(#p7045da7ef2)" d="M 22728.967561 300.376165 
L 22729.37705 300.555941 
L 22728.987536 300.775666 
L 22728.967561 300.376165 
z
" style="stroke:#000000;stroke-linecap:round;stroke-width:0.3;"/>
   </g>
   <g id="patch_107">
    <path clip-path="url(#p7045da7ef2)" d="M 21541.362971 360.043355 
Q 22135.537506 389.752082 22729.37705 419.444059 
" style="fill:none;stroke:#000000;stroke-linecap:round;stroke-width:0.3;"/>
    <path clip-path="url(#p7045da7ef2)" d="M 22728.987536 419.224334 
L 22729.37705 419.444059 
L 22728.967561 419.623835 
L 22728.987536 419.224334 
z
" style="stroke:#000000;stroke-linecap:round;stroke-width:0.3;"/>
   </g>
   <g id="patch_108">
    <path clip-path="url(#p7045da7ef2)" d="M 22731.445615 300.495868 
Q 23325.620151 300.495868 23919.459276 300.495868 
" style="fill:none;stroke:#000000;stroke-linecap:round;stroke-width:0.3;"/>
    <path clip-path="url(#p7045da7ef2)" d="M 23919.059276 300.295868 
L 23919.459276 300.495868 
L 23919.059276 300.695868 
L 23919.059276 300.295868 
z
" style="stroke:#000000;stroke-linecap:round;stroke-width:0.3;"/>
   </g>
   <g id="patch_109">
    <path clip-path="url(#p7045da7ef2)" d="M 22731.436536 300.58167 
Q 23325.620144 360.000031 23919.470007 419.385017 
" style="fill:none;stroke:#000000;stroke-linecap:round;stroke-width:0.3;"/>
    <path clip-path="url(#p7045da7ef2)" d="M 23919.091893 419.146208 
L 23919.470007 419.385017 
L 23919.052091 419.544223 
L 23919.091893 419.146208 
z
" style="stroke:#000000;stroke-linecap:round;stroke-width:0.3;"/>
   </g>
   <g id="patch_110">
    <path clip-path="url(#p7045da7ef2)" d="M 23921.52826 300.539223 
Q 24515.702795 330.24795 25109.542339 359.939927 
" style="fill:none;stroke:#000000;stroke-linecap:round;stroke-width:0.3;"/>
    <path clip-path="url(#p7045da7ef2)" d="M 25109.152826 359.720201 
L 25109.542339 359.939927 
L 25109.13285 360.119702 
L 25109.152826 359.720201 
z
" style="stroke:#000000;stroke-linecap:round;stroke-width:0.3;"/>
   </g>
   <g id="patch_111">
    <path clip-path="url(#p7045da7ef2)" d="M 23921.52826 300.517545 
Q 25110.74396 330.247938 26299.624354 359.969948 
" style="fill:none;stroke:#000000;stroke-linecap:round;stroke-width:0.3;"/>
    <path clip-path="url(#p7045da7ef2)" d="M 26299.229477 359.760013 
L 26299.624354 359.969948 
L 26299.21948 360.159888 
L 26299.229477 359.760013 
z
" style="stroke:#000000;stroke-linecap:round;stroke-width:0.3;"/>
   </g>
   <g id="patch_112">
    <path clip-path="url(#p7045da7ef2)" d="M 14400.867103 657.477306 
Q 14995.041638 627.768579 15588.881182 598.076602 
" style="fill:none;stroke:#000000;stroke-linecap:round;stroke-width:0.3;"/>
    <path clip-path="url(#p7045da7ef2)" d="M 15588.471693 597.896827 
L 15588.881182 598.076602 
L 15588.491669 598.296328 
L 15588.471693 597.896827 
z
" style="stroke:#000000;stroke-linecap:round;stroke-width:0.3;"/>
   </g>
   <g id="patch_113">
    <path clip-path="url(#p7045da7ef2)" d="M 15590.949747 598.016529 
Q 16185.124283 598.016529 16778.963408 598.016529 
" style="fill:none;stroke:#000000;stroke-linecap:round;stroke-width:0.3;"/>
    <path clip-path="url(#p7045da7ef2)" d="M 16778.563408 597.816529 
L 16778.963408 598.016529 
L 16778.563408 598.216529 
L 16778.563408 597.816529 
z
" style="stroke:#000000;stroke-linecap:round;stroke-width:0.3;"/>
   </g>
   <g id="patch_114">
    <path clip-path="url(#p7045da7ef2)" d="M 16781.032392 597.973174 
Q 17375.206927 568.264447 17969.046471 538.57247 
" style="fill:none;stroke:#000000;stroke-linecap:round;stroke-width:0.3;"/>
    <path clip-path="url(#p7045da7ef2)" d="M 17968.636983 538.392694 
L 17969.046471 538.57247 
L 17968.656958 538.792195 
L 17968.636983 538.392694 
z
" style="stroke:#000000;stroke-linecap:round;stroke-width:0.3;"/>
   </g>
   <g id="patch_115">
    <path clip-path="url(#p7045da7ef2)" d="M 17971.115037 538.512397 
Q 18565.289572 538.512397 19159.128697 538.512397 
" style="fill:none;stroke:#000000;stroke-linecap:round;stroke-width:0.3;"/>
    <path clip-path="url(#p7045da7ef2)" d="M 19158.728697 538.312397 
L 19159.128697 538.512397 
L 19158.728697 538.712397 
L 19158.728697 538.312397 
z
" style="stroke:#000000;stroke-linecap:round;stroke-width:0.3;"/>
   </g>
   <g id="patch_116">
    <path clip-path="url(#p7045da7ef2)" d="M 19161.197681 538.469042 
Q 19755.372217 508.760315 20349.21176 479.068338 
" style="fill:none;stroke:#000000;stroke-linecap:round;stroke-width:0.3;"/>
    <path clip-path="url(#p7045da7ef2)" d="M 20348.802272 478.888562 
L 20349.21176 479.068338 
L 20348.822247 479.288063 
L 20348.802272 478.888562 
z
" style="stroke:#000000;stroke-linecap:round;stroke-width:0.3;"/>
   </g>
   <g id="patch_117">
    <path clip-path="url(#p7045da7ef2)" d="M 20351.280326 479.008264 
Q 20945.454861 479.008264 21539.293987 479.008264 
" style="fill:none;stroke:#000000;stroke-linecap:round;stroke-width:0.3;"/>
    <path clip-path="url(#p7045da7ef2)" d="M 21538.893987 478.808264 
L 21539.293987 479.008264 
L 21538.893987 479.208264 
L 21538.893987 478.808264 
z
" style="stroke:#000000;stroke-linecap:round;stroke-width:0.3;"/>
   </g>
   <g id="patch_118">
    <path clip-path="url(#p7045da7ef2)" d="M 21541.362971 478.964909 
Q 22135.537506 449.256183 22729.37705 419.564205 
" style="fill:none;stroke:#000000;stroke-linecap:round;stroke-width:0.3;"/>
    <path clip-path="url(#p7045da7ef2)" d="M 22728.967561 419.38443 
L 22729.37705 419.564205 
L 22728.987536 419.783931 
L 22728.967561 419.38443 
z
" style="stroke:#000000;stroke-linecap:round;stroke-width:0.3;"/>
   </g>
   <g id="patch_119">
    <path clip-path="url(#p7045da7ef2)" d="M 22731.445615 419.504132 
Q 23325.620151 419.504132 23919.459276 419.504132 
" style="fill:none;stroke:#000000;stroke-linecap:round;stroke-width:0.3;"/>
    <path clip-path="url(#p7045da7ef2)" d="M 23919.059276 419.304132 
L 23919.459276 419.504132 
L 23919.059276 419.704132 
L 23919.059276 419.304132 
z
" style="stroke:#000000;stroke-linecap:round;stroke-width:0.3;"/>
   </g>
   <g id="patch_120">
    <path clip-path="url(#p7045da7ef2)" d="M 23921.52826 419.460777 
Q 24515.702795 389.75205 25109.542339 360.060073 
" style="fill:none;stroke:#000000;stroke-linecap:round;stroke-width:0.3;"/>
    <path clip-path="url(#p7045da7ef2)" d="M 25109.13285 359.880298 
L 25109.542339 360.060073 
L 25109.152826 360.279799 
L 25109.13285 359.880298 
z
" style="stroke:#000000;stroke-linecap:round;stroke-width:0.3;"/>
   </g>
   <g id="patch_121">
    <path clip-path="url(#p7045da7ef2)" d="M 25111.610904 360 
Q 25705.78544 360 26299.624565 360 
" style="fill:none;stroke:#000000;stroke-linecap:round;stroke-width:0.3;"/>
    <path clip-path="url(#p7045da7ef2)" d="M 26299.224565 359.8 
L 26299.624565 360 
L 26299.224565 360.2 
L 26299.224565 359.8 
z
" style="stroke:#000000;stroke-linecap:round;stroke-width:0.3;"/>
   </g>
   <g id="PathCollection_1">
    <defs>
     <path d="M 0 0.866025 
C 0.229673 0.866025 0.449969 0.774776 0.612372 0.612372 
C 0.774776 0.449969 0.866025 0.229673 0.866025 0 
C 0.866025 -0.229673 0.774776 -0.449969 0.612372 -0.612372 
C 0.449969 -0.774776 0.229673 -0.866025 0 -0.866025 
C -0.229673 -0.866025 -0.449969 -0.774776 -0.612372 -0.612372 
C -0.774776 -0.449969 -0.866025 -0.229673 -0.866025 0 
C -0.866025 0.229673 -0.774776 0.449969 -0.612372 0.612372 
C -0.449969 0.774776 -0.229673 0.866025 0 0.866025 
z
" id="mca26b3ccc7" style="stroke:#1f78b4;"/>
    </defs>
    <g clip-path="url(#p7045da7ef2)">
     <use style="fill:#1f78b4;stroke:#1f78b4;" x="2499.173554" xlink:href="#mca26b3ccc7" y="360"/>
     <use style="fill:#1f78b4;stroke:#1f78b4;" x="3689.256198" xlink:href="#mca26b3ccc7" y="360"/>
     <use style="fill:#1f78b4;stroke:#1f78b4;" x="4879.338843" xlink:href="#mca26b3ccc7" y="300.495868"/>
     <use style="fill:#1f78b4;stroke:#1f78b4;" x="4879.338843" xlink:href="#mca26b3ccc7" y="419.504132"/>
     <use style="fill:#1f78b4;stroke:#1f78b4;" x="6069.421488" xlink:href="#mca26b3ccc7" y="300.495868"/>
     <use style="fill:#1f78b4;stroke:#1f78b4;" x="7259.504132" xlink:href="#mca26b3ccc7" y="240.991736"/>
     <use style="fill:#1f78b4;stroke:#1f78b4;" x="6069.421488" xlink:href="#mca26b3ccc7" y="419.504132"/>
     <use style="fill:#1f78b4;stroke:#1f78b4;" x="7259.504132" xlink:href="#mca26b3ccc7" y="360"/>
     <use style="fill:#1f78b4;stroke:#1f78b4;" x="8449.586777" xlink:href="#mca26b3ccc7" y="240.991736"/>
     <use style="fill:#1f78b4;stroke:#1f78b4;" x="9639.669421" xlink:href="#mca26b3ccc7" y="181.487603"/>
     <use style="fill:#1f78b4;stroke:#1f78b4;" x="7259.504132" xlink:href="#mca26b3ccc7" y="479.008264"/>
     <use style="fill:#1f78b4;stroke:#1f78b4;" x="8449.586777" xlink:href="#mca26b3ccc7" y="360"/>
     <use style="fill:#1f78b4;stroke:#1f78b4;" x="9639.669421" xlink:href="#mca26b3ccc7" y="300.495868"/>
     <use style="fill:#1f78b4;stroke:#1f78b4;" x="10829.752066" xlink:href="#mca26b3ccc7" y="181.487603"/>
     <use style="fill:#1f78b4;stroke:#1f78b4;" x="12019.834711" xlink:href="#mca26b3ccc7" y="121.983471"/>
     <use style="fill:#1f78b4;stroke:#1f78b4;" x="8449.586777" xlink:href="#mca26b3ccc7" y="479.008264"/>
     <use style="fill:#1f78b4;stroke:#1f78b4;" x="9639.669421" xlink:href="#mca26b3ccc7" y="419.504132"/>
     <use style="fill:#1f78b4;stroke:#1f78b4;" x="10829.752066" xlink:href="#mca26b3ccc7" y="300.495868"/>
     <use style="fill:#1f78b4;stroke:#1f78b4;" x="12019.834711" xlink:href="#mca26b3ccc7" y="240.991736"/>
     <use style="fill:#1f78b4;stroke:#1f78b4;" x="13209.917355" xlink:href="#mca26b3ccc7" y="121.983471"/>
     <use style="fill:#1f78b4;stroke:#1f78b4;" x="14400" xlink:href="#mca26b3ccc7" y="62.479339"/>
     <use style="fill:#1f78b4;stroke:#1f78b4;" x="9639.669421" xlink:href="#mca26b3ccc7" y="538.512397"/>
     <use style="fill:#1f78b4;stroke:#1f78b4;" x="10829.752066" xlink:href="#mca26b3ccc7" y="419.504132"/>
     <use style="fill:#1f78b4;stroke:#1f78b4;" x="12019.834711" xlink:href="#mca26b3ccc7" y="360"/>
     <use style="fill:#1f78b4;stroke:#1f78b4;" x="13209.917355" xlink:href="#mca26b3ccc7" y="240.991736"/>
     <use style="fill:#1f78b4;stroke:#1f78b4;" x="14400" xlink:href="#mca26b3ccc7" y="181.487603"/>
     <use style="fill:#1f78b4;stroke:#1f78b4;" x="15590.082645" xlink:href="#mca26b3ccc7" y="121.983471"/>
     <use style="fill:#1f78b4;stroke:#1f78b4;" x="16780.165289" xlink:href="#mca26b3ccc7" y="121.983471"/>
     <use style="fill:#1f78b4;stroke:#1f78b4;" x="10829.752066" xlink:href="#mca26b3ccc7" y="538.512397"/>
     <use style="fill:#1f78b4;stroke:#1f78b4;" x="12019.834711" xlink:href="#mca26b3ccc7" y="479.008264"/>
     <use style="fill:#1f78b4;stroke:#1f78b4;" x="13209.917355" xlink:href="#mca26b3ccc7" y="360"/>
     <use style="fill:#1f78b4;stroke:#1f78b4;" x="14400" xlink:href="#mca26b3ccc7" y="300.495868"/>
     <use style="fill:#1f78b4;stroke:#1f78b4;" x="15590.082645" xlink:href="#mca26b3ccc7" y="240.991736"/>
     <use style="fill:#1f78b4;stroke:#1f78b4;" x="16780.165289" xlink:href="#mca26b3ccc7" y="240.991736"/>
     <use style="fill:#1f78b4;stroke:#1f78b4;" x="17970.247934" xlink:href="#mca26b3ccc7" y="181.487603"/>
     <use style="fill:#1f78b4;stroke:#1f78b4;" x="19160.330579" xlink:href="#mca26b3ccc7" y="181.487603"/>
     <use style="fill:#1f78b4;stroke:#1f78b4;" x="12019.834711" xlink:href="#mca26b3ccc7" y="598.016529"/>
     <use style="fill:#1f78b4;stroke:#1f78b4;" x="13209.917355" xlink:href="#mca26b3ccc7" y="479.008264"/>
     <use style="fill:#1f78b4;stroke:#1f78b4;" x="14400" xlink:href="#mca26b3ccc7" y="419.504132"/>
     <use style="fill:#1f78b4;stroke:#1f78b4;" x="15590.082645" xlink:href="#mca26b3ccc7" y="360"/>
     <use style="fill:#1f78b4;stroke:#1f78b4;" x="16780.165289" xlink:href="#mca26b3ccc7" y="360"/>
     <use style="fill:#1f78b4;stroke:#1f78b4;" x="17970.247934" xlink:href="#mca26b3ccc7" y="300.495868"/>
     <use style="fill:#1f78b4;stroke:#1f78b4;" x="19160.330579" xlink:href="#mca26b3ccc7" y="300.495868"/>
     <use style="fill:#1f78b4;stroke:#1f78b4;" x="20350.413223" xlink:href="#mca26b3ccc7" y="240.991736"/>
     <use style="fill:#1f78b4;stroke:#1f78b4;" x="21540.495868" xlink:href="#mca26b3ccc7" y="240.991736"/>
     <use style="fill:#1f78b4;stroke:#1f78b4;" x="13209.917355" xlink:href="#mca26b3ccc7" y="598.016529"/>
     <use style="fill:#1f78b4;stroke:#1f78b4;" x="14400" xlink:href="#mca26b3ccc7" y="538.512397"/>
     <use style="fill:#1f78b4;stroke:#1f78b4;" x="15590.082645" xlink:href="#mca26b3ccc7" y="479.008264"/>
     <use style="fill:#1f78b4;stroke:#1f78b4;" x="16780.165289" xlink:href="#mca26b3ccc7" y="479.008264"/>
     <use style="fill:#1f78b4;stroke:#1f78b4;" x="17970.247934" xlink:href="#mca26b3ccc7" y="419.504132"/>
     <use style="fill:#1f78b4;stroke:#1f78b4;" x="19160.330579" xlink:href="#mca26b3ccc7" y="419.504132"/>
     <use style="fill:#1f78b4;stroke:#1f78b4;" x="20350.413223" xlink:href="#mca26b3ccc7" y="360"/>
     <use style="fill:#1f78b4;stroke:#1f78b4;" x="21540.495868" xlink:href="#mca26b3ccc7" y="360"/>
     <use style="fill:#1f78b4;stroke:#1f78b4;" x="22730.578512" xlink:href="#mca26b3ccc7" y="300.495868"/>
     <use style="fill:#1f78b4;stroke:#1f78b4;" x="23920.661157" xlink:href="#mca26b3ccc7" y="300.495868"/>
     <use style="fill:#1f78b4;stroke:#1f78b4;" x="14400" xlink:href="#mca26b3ccc7" y="657.520661"/>
     <use style="fill:#1f78b4;stroke:#1f78b4;" x="15590.082645" xlink:href="#mca26b3ccc7" y="598.016529"/>
     <use style="fill:#1f78b4;stroke:#1f78b4;" x="16780.165289" xlink:href="#mca26b3ccc7" y="598.016529"/>
     <use style="fill:#1f78b4;stroke:#1f78b4;" x="17970.247934" xlink:href="#mca26b3ccc7" y="538.512397"/>
     <use style="fill:#1f78b4;stroke:#1f78b4;" x="19160.330579" xlink:href="#mca26b3ccc7" y="538.512397"/>
     <use style="fill:#1f78b4;stroke:#1f78b4;" x="20350.413223" xlink:href="#mca26b3ccc7" y="479.008264"/>
     <use style="fill:#1f78b4;stroke:#1f78b4;" x="21540.495868" xlink:href="#mca26b3ccc7" y="479.008264"/>
     <use style="fill:#1f78b4;stroke:#1f78b4;" x="22730.578512" xlink:href="#mca26b3ccc7" y="419.504132"/>
     <use style="fill:#1f78b4;stroke:#1f78b4;" x="23920.661157" xlink:href="#mca26b3ccc7" y="419.504132"/>
     <use style="fill:#1f78b4;stroke:#1f78b4;" x="25110.743802" xlink:href="#mca26b3ccc7" y="360"/>
     <use style="fill:#1f78b4;stroke:#1f78b4;" x="26300.826446" xlink:href="#mca26b3ccc7" y="360"/>
    </g>
   </g>
   <g id="text_1">
    <g clip-path="url(#p7045da7ef2)">
     <!-- 2 -->
     <g transform="translate(2498.855429 360.275937)scale(0.01 -0.01)">
      <defs>
       <path d="M 19.1875 8.296875 
L 53.609375 8.296875 
L 53.609375 0 
L 7.328125 0 
L 7.328125 8.296875 
Q 12.9375 14.109375 22.625 23.890625 
Q 32.328125 33.6875 34.8125 36.53125 
Q 39.546875 41.84375 41.421875 45.53125 
Q 43.3125 49.21875 43.3125 52.78125 
Q 43.3125 58.59375 39.234375 62.25 
Q 35.15625 65.921875 28.609375 65.921875 
Q 23.96875 65.921875 18.8125 64.3125 
Q 13.671875 62.703125 7.8125 59.421875 
L 7.8125 69.390625 
Q 13.765625 71.78125 18.9375 73 
Q 24.125 74.21875 28.421875 74.21875 
Q 39.75 74.21875 46.484375 68.546875 
Q 53.21875 62.890625 53.21875 53.421875 
Q 53.21875 48.921875 51.53125 44.890625 
Q 49.859375 40.875 45.40625 35.40625 
Q 44.1875 33.984375 37.640625 27.21875 
Q 31.109375 20.453125 19.1875 8.296875 
z
" id="DejaVuSans-50"/>
      </defs>
      <use xlink:href="#DejaVuSans-50"/>
     </g>
    </g>
   </g>
   <g id="text_2">
    <g clip-path="url(#p7045da7ef2)">
     <!-- 8 -->
     <g transform="translate(3688.938073 360.275937)scale(0.01 -0.01)">
      <defs>
       <path d="M 31.78125 34.625 
Q 24.75 34.625 20.71875 30.859375 
Q 16.703125 27.09375 16.703125 20.515625 
Q 16.703125 13.921875 20.71875 10.15625 
Q 24.75 6.390625 31.78125 6.390625 
Q 38.8125 6.390625 42.859375 10.171875 
Q 46.921875 13.96875 46.921875 20.515625 
Q 46.921875 27.09375 42.890625 30.859375 
Q 38.875 34.625 31.78125 34.625 
z
M 21.921875 38.8125 
Q 15.578125 40.375 12.03125 44.71875 
Q 8.5 49.078125 8.5 55.328125 
Q 8.5 64.0625 14.71875 69.140625 
Q 20.953125 74.21875 31.78125 74.21875 
Q 42.671875 74.21875 48.875 69.140625 
Q 55.078125 64.0625 55.078125 55.328125 
Q 55.078125 49.078125 51.53125 44.71875 
Q 48 40.375 41.703125 38.8125 
Q 48.828125 37.15625 52.796875 32.3125 
Q 56.78125 27.484375 56.78125 20.515625 
Q 56.78125 9.90625 50.3125 4.234375 
Q 43.84375 -1.421875 31.78125 -1.421875 
Q 19.734375 -1.421875 13.25 4.234375 
Q 6.78125 9.90625 6.78125 20.515625 
Q 6.78125 27.484375 10.78125 32.3125 
Q 14.796875 37.15625 21.921875 38.8125 
z
M 18.3125 54.390625 
Q 18.3125 48.734375 21.84375 45.5625 
Q 25.390625 42.390625 31.78125 42.390625 
Q 38.140625 42.390625 41.71875 45.5625 
Q 45.3125 48.734375 45.3125 54.390625 
Q 45.3125 60.0625 41.71875 63.234375 
Q 38.140625 66.40625 31.78125 66.40625 
Q 25.390625 66.40625 21.84375 63.234375 
Q 18.3125 60.0625 18.3125 54.390625 
z
" id="DejaVuSans-56"/>
      </defs>
      <use xlink:href="#DejaVuSans-56"/>
     </g>
    </g>
   </g>
   <g id="text_3">
    <g clip-path="url(#p7045da7ef2)">
     <!-- 13 -->
     <g transform="translate(4878.702593 300.771805)scale(0.01 -0.01)">
      <defs>
       <path d="M 12.40625 8.296875 
L 28.515625 8.296875 
L 28.515625 63.921875 
L 10.984375 60.40625 
L 10.984375 69.390625 
L 28.421875 72.90625 
L 38.28125 72.90625 
L 38.28125 8.296875 
L 54.390625 8.296875 
L 54.390625 0 
L 12.40625 0 
z
" id="DejaVuSans-49"/>
       <path d="M 40.578125 39.3125 
Q 47.65625 37.796875 51.625 33 
Q 55.609375 28.21875 55.609375 21.1875 
Q 55.609375 10.40625 48.1875 4.484375 
Q 40.765625 -1.421875 27.09375 -1.421875 
Q 22.515625 -1.421875 17.65625 -0.515625 
Q 12.796875 0.390625 7.625 2.203125 
L 7.625 11.71875 
Q 11.71875 9.328125 16.59375 8.109375 
Q 21.484375 6.890625 26.8125 6.890625 
Q 36.078125 6.890625 40.9375 10.546875 
Q 45.796875 14.203125 45.796875 21.1875 
Q 45.796875 27.640625 41.28125 31.265625 
Q 36.765625 34.90625 28.71875 34.90625 
L 20.21875 34.90625 
L 20.21875 43.015625 
L 29.109375 43.015625 
Q 36.375 43.015625 40.234375 45.921875 
Q 44.09375 48.828125 44.09375 54.296875 
Q 44.09375 59.90625 40.109375 62.90625 
Q 36.140625 65.921875 28.71875 65.921875 
Q 24.65625 65.921875 20.015625 65.03125 
Q 15.375 64.15625 9.8125 62.3125 
L 9.8125 71.09375 
Q 15.4375 72.65625 20.34375 73.4375 
Q 25.25 74.21875 29.59375 74.21875 
Q 40.828125 74.21875 47.359375 69.109375 
Q 53.90625 64.015625 53.90625 55.328125 
Q 53.90625 49.265625 50.4375 45.09375 
Q 46.96875 40.921875 40.578125 39.3125 
z
" id="DejaVuSans-51"/>
      </defs>
      <use xlink:href="#DejaVuSans-49"/>
      <use x="63.623047" xlink:href="#DejaVuSans-51"/>
     </g>
    </g>
   </g>
   <g id="text_4">
    <g clip-path="url(#p7045da7ef2)">
     <!-- 19 -->
     <g transform="translate(4878.702593 419.78007)scale(0.01 -0.01)">
      <defs>
       <path d="M 10.984375 1.515625 
L 10.984375 10.5 
Q 14.703125 8.734375 18.5 7.8125 
Q 22.3125 6.890625 25.984375 6.890625 
Q 35.75 6.890625 40.890625 13.453125 
Q 46.046875 20.015625 46.78125 33.40625 
Q 43.953125 29.203125 39.59375 26.953125 
Q 35.25 24.703125 29.984375 24.703125 
Q 19.046875 24.703125 12.671875 31.3125 
Q 6.296875 37.9375 6.296875 49.421875 
Q 6.296875 60.640625 12.9375 67.421875 
Q 19.578125 74.21875 30.609375 74.21875 
Q 43.265625 74.21875 49.921875 64.515625 
Q 56.59375 54.828125 56.59375 36.375 
Q 56.59375 19.140625 48.40625 8.859375 
Q 40.234375 -1.421875 26.421875 -1.421875 
Q 22.703125 -1.421875 18.890625 -0.6875 
Q 15.09375 0.046875 10.984375 1.515625 
z
M 30.609375 32.421875 
Q 37.25 32.421875 41.125 36.953125 
Q 45.015625 41.5 45.015625 49.421875 
Q 45.015625 57.28125 41.125 61.84375 
Q 37.25 66.40625 30.609375 66.40625 
Q 23.96875 66.40625 20.09375 61.84375 
Q 16.21875 57.28125 16.21875 49.421875 
Q 16.21875 41.5 20.09375 36.953125 
Q 23.96875 32.421875 30.609375 32.421875 
z
" id="DejaVuSans-57"/>
      </defs>
      <use xlink:href="#DejaVuSans-49"/>
      <use x="63.623047" xlink:href="#DejaVuSans-57"/>
     </g>
    </g>
   </g>
   <g id="text_5">
    <g clip-path="url(#p7045da7ef2)">
     <!-- 24 -->
     <g transform="translate(6068.785238 300.771805)scale(0.01 -0.01)">
      <defs>
       <path d="M 37.796875 64.3125 
L 12.890625 25.390625 
L 37.796875 25.390625 
z
M 35.203125 72.90625 
L 47.609375 72.90625 
L 47.609375 25.390625 
L 58.015625 25.390625 
L 58.015625 17.1875 
L 47.609375 17.1875 
L 47.609375 0 
L 37.796875 0 
L 37.796875 17.1875 
L 4.890625 17.1875 
L 4.890625 26.703125 
z
" id="DejaVuSans-52"/>
      </defs>
      <use xlink:href="#DejaVuSans-50"/>
      <use x="63.623047" xlink:href="#DejaVuSans-52"/>
     </g>
    </g>
   </g>
   <g id="text_6">
    <g clip-path="url(#p7045da7ef2)">
     <!-- 29 -->
     <g transform="translate(7258.867882 241.267673)scale(0.01 -0.01)">
      <use xlink:href="#DejaVuSans-50"/>
      <use x="63.623047" xlink:href="#DejaVuSans-57"/>
     </g>
    </g>
   </g>
   <g id="text_7">
    <g clip-path="url(#p7045da7ef2)">
     <!-- 35 -->
     <g transform="translate(6068.785238 419.78007)scale(0.01 -0.01)">
      <defs>
       <path d="M 10.796875 72.90625 
L 49.515625 72.90625 
L 49.515625 64.59375 
L 19.828125 64.59375 
L 19.828125 46.734375 
Q 21.96875 47.46875 24.109375 47.828125 
Q 26.265625 48.1875 28.421875 48.1875 
Q 40.625 48.1875 47.75 41.5 
Q 54.890625 34.8125 54.890625 23.390625 
Q 54.890625 11.625 47.5625 5.09375 
Q 40.234375 -1.421875 26.90625 -1.421875 
Q 22.3125 -1.421875 17.546875 -0.640625 
Q 12.796875 0.140625 7.71875 1.703125 
L 7.71875 11.625 
Q 12.109375 9.234375 16.796875 8.0625 
Q 21.484375 6.890625 26.703125 6.890625 
Q 35.15625 6.890625 40.078125 11.328125 
Q 45.015625 15.765625 45.015625 23.390625 
Q 45.015625 31 40.078125 35.4375 
Q 35.15625 39.890625 26.703125 39.890625 
Q 22.75 39.890625 18.8125 39.015625 
Q 14.890625 38.140625 10.796875 36.28125 
z
" id="DejaVuSans-53"/>
      </defs>
      <use xlink:href="#DejaVuSans-51"/>
      <use x="63.623047" xlink:href="#DejaVuSans-53"/>
     </g>
    </g>
   </g>
   <g id="text_8">
    <g clip-path="url(#p7045da7ef2)">
     <!-- 40 -->
     <g transform="translate(7258.867882 360.275937)scale(0.01 -0.01)">
      <defs>
       <path d="M 31.78125 66.40625 
Q 24.171875 66.40625 20.328125 58.90625 
Q 16.5 51.421875 16.5 36.375 
Q 16.5 21.390625 20.328125 13.890625 
Q 24.171875 6.390625 31.78125 6.390625 
Q 39.453125 6.390625 43.28125 13.890625 
Q 47.125 21.390625 47.125 36.375 
Q 47.125 51.421875 43.28125 58.90625 
Q 39.453125 66.40625 31.78125 66.40625 
z
M 31.78125 74.21875 
Q 44.046875 74.21875 50.515625 64.515625 
Q 56.984375 54.828125 56.984375 36.375 
Q 56.984375 17.96875 50.515625 8.265625 
Q 44.046875 -1.421875 31.78125 -1.421875 
Q 19.53125 -1.421875 13.0625 8.265625 
Q 6.59375 17.96875 6.59375 36.375 
Q 6.59375 54.828125 13.0625 64.515625 
Q 19.53125 74.21875 31.78125 74.21875 
z
" id="DejaVuSans-48"/>
      </defs>
      <use xlink:href="#DejaVuSans-52"/>
      <use x="63.623047" xlink:href="#DejaVuSans-48"/>
     </g>
    </g>
   </g>
   <g id="text_9">
    <g clip-path="url(#p7045da7ef2)">
     <!-- 45 -->
     <g transform="translate(8448.950527 241.267673)scale(0.01 -0.01)">
      <use xlink:href="#DejaVuSans-52"/>
      <use x="63.623047" xlink:href="#DejaVuSans-53"/>
     </g>
    </g>
   </g>
   <g id="text_10">
    <g clip-path="url(#p7045da7ef2)">
     <!-- 50 -->
     <g transform="translate(9639.033171 181.763541)scale(0.01 -0.01)">
      <use xlink:href="#DejaVuSans-53"/>
      <use x="63.623047" xlink:href="#DejaVuSans-48"/>
     </g>
    </g>
   </g>
   <g id="text_11">
    <g clip-path="url(#p7045da7ef2)">
     <!-- 56 -->
     <g transform="translate(7258.867882 479.284202)scale(0.01 -0.01)">
      <defs>
       <path d="M 33.015625 40.375 
Q 26.375 40.375 22.484375 35.828125 
Q 18.609375 31.296875 18.609375 23.390625 
Q 18.609375 15.53125 22.484375 10.953125 
Q 26.375 6.390625 33.015625 6.390625 
Q 39.65625 6.390625 43.53125 10.953125 
Q 47.40625 15.53125 47.40625 23.390625 
Q 47.40625 31.296875 43.53125 35.828125 
Q 39.65625 40.375 33.015625 40.375 
z
M 52.59375 71.296875 
L 52.59375 62.3125 
Q 48.875 64.0625 45.09375 64.984375 
Q 41.3125 65.921875 37.59375 65.921875 
Q 27.828125 65.921875 22.671875 59.328125 
Q 17.53125 52.734375 16.796875 39.40625 
Q 19.671875 43.65625 24.015625 45.921875 
Q 28.375 48.1875 33.59375 48.1875 
Q 44.578125 48.1875 50.953125 41.515625 
Q 57.328125 34.859375 57.328125 23.390625 
Q 57.328125 12.15625 50.6875 5.359375 
Q 44.046875 -1.421875 33.015625 -1.421875 
Q 20.359375 -1.421875 13.671875 8.265625 
Q 6.984375 17.96875 6.984375 36.375 
Q 6.984375 53.65625 15.1875 63.9375 
Q 23.390625 74.21875 37.203125 74.21875 
Q 40.921875 74.21875 44.703125 73.484375 
Q 48.484375 72.75 52.59375 71.296875 
z
" id="DejaVuSans-54"/>
      </defs>
      <use xlink:href="#DejaVuSans-53"/>
      <use x="63.623047" xlink:href="#DejaVuSans-54"/>
     </g>
    </g>
   </g>
   <g id="text_12">
    <g clip-path="url(#p7045da7ef2)">
     <!-- 61 -->
     <g transform="translate(8448.950527 360.275937)scale(0.01 -0.01)">
      <use xlink:href="#DejaVuSans-54"/>
      <use x="63.623047" xlink:href="#DejaVuSans-49"/>
     </g>
    </g>
   </g>
   <g id="text_13">
    <g clip-path="url(#p7045da7ef2)">
     <!-- 66 -->
     <g transform="translate(9639.033171 300.771805)scale(0.01 -0.01)">
      <use xlink:href="#DejaVuSans-54"/>
      <use x="63.623047" xlink:href="#DejaVuSans-54"/>
     </g>
    </g>
   </g>
   <g id="text_14">
    <g clip-path="url(#p7045da7ef2)">
     <!-- 71 -->
     <g transform="translate(10829.115816 181.763541)scale(0.01 -0.01)">
      <defs>
       <path d="M 8.203125 72.90625 
L 55.078125 72.90625 
L 55.078125 68.703125 
L 28.609375 0 
L 18.3125 0 
L 43.21875 64.59375 
L 8.203125 64.59375 
z
" id="DejaVuSans-55"/>
      </defs>
      <use xlink:href="#DejaVuSans-55"/>
      <use x="63.623047" xlink:href="#DejaVuSans-49"/>
     </g>
    </g>
   </g>
   <g id="text_15">
    <g clip-path="url(#p7045da7ef2)">
     <!-- 76 -->
     <g transform="translate(12019.198461 122.259409)scale(0.01 -0.01)">
      <use xlink:href="#DejaVuSans-55"/>
      <use x="63.623047" xlink:href="#DejaVuSans-54"/>
     </g>
    </g>
   </g>
   <g id="text_16">
    <g clip-path="url(#p7045da7ef2)">
     <!-- 82 -->
     <g transform="translate(8448.950527 479.284202)scale(0.01 -0.01)">
      <use xlink:href="#DejaVuSans-56"/>
      <use x="63.623047" xlink:href="#DejaVuSans-50"/>
     </g>
    </g>
   </g>
   <g id="text_17">
    <g clip-path="url(#p7045da7ef2)">
     <!-- 87 -->
     <g transform="translate(9639.033171 419.78007)scale(0.01 -0.01)">
      <use xlink:href="#DejaVuSans-56"/>
      <use x="63.623047" xlink:href="#DejaVuSans-55"/>
     </g>
    </g>
   </g>
   <g id="text_18">
    <g clip-path="url(#p7045da7ef2)">
     <!-- 92 -->
     <g transform="translate(10829.115816 300.771805)scale(0.01 -0.01)">
      <use xlink:href="#DejaVuSans-57"/>
      <use x="63.623047" xlink:href="#DejaVuSans-50"/>
     </g>
    </g>
   </g>
   <g id="text_19">
    <g clip-path="url(#p7045da7ef2)">
     <!-- 97 -->
     <g transform="translate(12019.198461 241.267673)scale(0.01 -0.01)">
      <use xlink:href="#DejaVuSans-57"/>
      <use x="63.623047" xlink:href="#DejaVuSans-55"/>
     </g>
    </g>
   </g>
   <g id="text_20">
    <g clip-path="url(#p7045da7ef2)">
     <!-- 102 -->
     <g transform="translate(13208.96298 122.259409)scale(0.01 -0.01)">
      <use xlink:href="#DejaVuSans-49"/>
      <use x="63.623047" xlink:href="#DejaVuSans-48"/>
      <use x="127.246094" xlink:href="#DejaVuSans-50"/>
     </g>
    </g>
   </g>
   <g id="text_21">
    <g clip-path="url(#p7045da7ef2)">
     <!-- 107 -->
     <g transform="translate(14399.045625 62.755276)scale(0.01 -0.01)">
      <use xlink:href="#DejaVuSans-49"/>
      <use x="63.623047" xlink:href="#DejaVuSans-48"/>
      <use x="127.246094" xlink:href="#DejaVuSans-55"/>
     </g>
    </g>
   </g>
   <g id="text_22">
    <g clip-path="url(#p7045da7ef2)">
     <!-- 113 -->
     <g transform="translate(9638.715046 538.788334)scale(0.01 -0.01)">
      <use xlink:href="#DejaVuSans-49"/>
      <use x="63.623047" xlink:href="#DejaVuSans-49"/>
      <use x="127.246094" xlink:href="#DejaVuSans-51"/>
     </g>
    </g>
   </g>
   <g id="text_23">
    <g clip-path="url(#p7045da7ef2)">
     <!-- 118 -->
     <g transform="translate(10828.797691 419.78007)scale(0.01 -0.01)">
      <use xlink:href="#DejaVuSans-49"/>
      <use x="63.623047" xlink:href="#DejaVuSans-49"/>
      <use x="127.246094" xlink:href="#DejaVuSans-56"/>
     </g>
    </g>
   </g>
   <g id="text_24">
    <g clip-path="url(#p7045da7ef2)">
     <!-- 123 -->
     <g transform="translate(12018.880336 360.275937)scale(0.01 -0.01)">
      <use xlink:href="#DejaVuSans-49"/>
      <use x="63.623047" xlink:href="#DejaVuSans-50"/>
      <use x="127.246094" xlink:href="#DejaVuSans-51"/>
     </g>
    </g>
   </g>
   <g id="text_25">
    <g clip-path="url(#p7045da7ef2)">
     <!-- 128 -->
     <g transform="translate(13208.96298 241.267673)scale(0.01 -0.01)">
      <use xlink:href="#DejaVuSans-49"/>
      <use x="63.623047" xlink:href="#DejaVuSans-50"/>
      <use x="127.246094" xlink:href="#DejaVuSans-56"/>
     </g>
    </g>
   </g>
   <g id="text_26">
    <g clip-path="url(#p7045da7ef2)">
     <!-- 133 -->
     <g transform="translate(14399.045625 181.763541)scale(0.01 -0.01)">
      <use xlink:href="#DejaVuSans-49"/>
      <use x="63.623047" xlink:href="#DejaVuSans-51"/>
      <use x="127.246094" xlink:href="#DejaVuSans-51"/>
     </g>
    </g>
   </g>
   <g id="text_27">
    <g clip-path="url(#p7045da7ef2)">
     <!-- 138 -->
     <g transform="translate(15589.12827 122.259409)scale(0.01 -0.01)">
      <use xlink:href="#DejaVuSans-49"/>
      <use x="63.623047" xlink:href="#DejaVuSans-51"/>
      <use x="127.246094" xlink:href="#DejaVuSans-56"/>
     </g>
    </g>
   </g>
   <g id="text_28">
    <g clip-path="url(#p7045da7ef2)">
     <!-- 143 -->
     <g transform="translate(16779.210914 122.259409)scale(0.01 -0.01)">
      <use xlink:href="#DejaVuSans-49"/>
      <use x="63.623047" xlink:href="#DejaVuSans-52"/>
      <use x="127.246094" xlink:href="#DejaVuSans-51"/>
     </g>
    </g>
   </g>
   <g id="text_29">
    <g clip-path="url(#p7045da7ef2)">
     <!-- 149 -->
     <g transform="translate(10828.797691 538.788334)scale(0.01 -0.01)">
      <use xlink:href="#DejaVuSans-49"/>
      <use x="63.623047" xlink:href="#DejaVuSans-52"/>
      <use x="127.246094" xlink:href="#DejaVuSans-57"/>
     </g>
    </g>
   </g>
   <g id="text_30">
    <g clip-path="url(#p7045da7ef2)">
     <!-- 154 -->
     <g transform="translate(12018.880336 479.284202)scale(0.01 -0.01)">
      <use xlink:href="#DejaVuSans-49"/>
      <use x="63.623047" xlink:href="#DejaVuSans-53"/>
      <use x="127.246094" xlink:href="#DejaVuSans-52"/>
     </g>
    </g>
   </g>
   <g id="text_31">
    <g clip-path="url(#p7045da7ef2)">
     <!-- 159 -->
     <g transform="translate(13208.96298 360.275937)scale(0.01 -0.01)">
      <use xlink:href="#DejaVuSans-49"/>
      <use x="63.623047" xlink:href="#DejaVuSans-53"/>
      <use x="127.246094" xlink:href="#DejaVuSans-57"/>
     </g>
    </g>
   </g>
   <g id="text_32">
    <g clip-path="url(#p7045da7ef2)">
     <!-- 164 -->
     <g transform="translate(14399.045625 300.771805)scale(0.01 -0.01)">
      <use xlink:href="#DejaVuSans-49"/>
      <use x="63.623047" xlink:href="#DejaVuSans-54"/>
      <use x="127.246094" xlink:href="#DejaVuSans-52"/>
     </g>
    </g>
   </g>
   <g id="text_33">
    <g clip-path="url(#p7045da7ef2)">
     <!-- 169 -->
     <g transform="translate(15589.12827 241.267673)scale(0.01 -0.01)">
      <use xlink:href="#DejaVuSans-49"/>
      <use x="63.623047" xlink:href="#DejaVuSans-54"/>
      <use x="127.246094" xlink:href="#DejaVuSans-57"/>
     </g>
    </g>
   </g>
   <g id="text_34">
    <g clip-path="url(#p7045da7ef2)">
     <!-- 174 -->
     <g transform="translate(16779.210914 241.267673)scale(0.01 -0.01)">
      <use xlink:href="#DejaVuSans-49"/>
      <use x="63.623047" xlink:href="#DejaVuSans-55"/>
      <use x="127.246094" xlink:href="#DejaVuSans-52"/>
     </g>
    </g>
   </g>
   <g id="text_35">
    <g clip-path="url(#p7045da7ef2)">
     <!-- 179 -->
     <g transform="translate(17969.293559 181.763541)scale(0.01 -0.01)">
      <use xlink:href="#DejaVuSans-49"/>
      <use x="63.623047" xlink:href="#DejaVuSans-55"/>
      <use x="127.246094" xlink:href="#DejaVuSans-57"/>
     </g>
    </g>
   </g>
   <g id="text_36">
    <g clip-path="url(#p7045da7ef2)">
     <!-- 184 -->
     <g transform="translate(19159.376204 181.763541)scale(0.01 -0.01)">
      <use xlink:href="#DejaVuSans-49"/>
      <use x="63.623047" xlink:href="#DejaVuSans-56"/>
      <use x="127.246094" xlink:href="#DejaVuSans-52"/>
     </g>
    </g>
   </g>
   <g id="text_37">
    <g clip-path="url(#p7045da7ef2)">
     <!-- 190 -->
     <g transform="translate(12018.880336 598.292466)scale(0.01 -0.01)">
      <use xlink:href="#DejaVuSans-49"/>
      <use x="63.623047" xlink:href="#DejaVuSans-57"/>
      <use x="127.246094" xlink:href="#DejaVuSans-48"/>
     </g>
    </g>
   </g>
   <g id="text_38">
    <g clip-path="url(#p7045da7ef2)">
     <!-- 195 -->
     <g transform="translate(13208.96298 479.284202)scale(0.01 -0.01)">
      <use xlink:href="#DejaVuSans-49"/>
      <use x="63.623047" xlink:href="#DejaVuSans-57"/>
      <use x="127.246094" xlink:href="#DejaVuSans-53"/>
     </g>
    </g>
   </g>
   <g id="text_39">
    <g clip-path="url(#p7045da7ef2)">
     <!-- 200 -->
     <g transform="translate(14399.045625 419.78007)scale(0.01 -0.01)">
      <use xlink:href="#DejaVuSans-50"/>
      <use x="63.623047" xlink:href="#DejaVuSans-48"/>
      <use x="127.246094" xlink:href="#DejaVuSans-48"/>
     </g>
    </g>
   </g>
   <g id="text_40">
    <g clip-path="url(#p7045da7ef2)">
     <!-- 205 -->
     <g transform="translate(15589.12827 360.275937)scale(0.01 -0.01)">
      <use xlink:href="#DejaVuSans-50"/>
      <use x="63.623047" xlink:href="#DejaVuSans-48"/>
      <use x="127.246094" xlink:href="#DejaVuSans-53"/>
     </g>
    </g>
   </g>
   <g id="text_41">
    <g clip-path="url(#p7045da7ef2)">
     <!-- 210 -->
     <g transform="translate(16779.210914 360.275937)scale(0.01 -0.01)">
      <use xlink:href="#DejaVuSans-50"/>
      <use x="63.623047" xlink:href="#DejaVuSans-49"/>
      <use x="127.246094" xlink:href="#DejaVuSans-48"/>
     </g>
    </g>
   </g>
   <g id="text_42">
    <g clip-path="url(#p7045da7ef2)">
     <!-- 215 -->
     <g transform="translate(17969.293559 300.771805)scale(0.01 -0.01)">
      <use xlink:href="#DejaVuSans-50"/>
      <use x="63.623047" xlink:href="#DejaVuSans-49"/>
      <use x="127.246094" xlink:href="#DejaVuSans-53"/>
     </g>
    </g>
   </g>
   <g id="text_43">
    <g clip-path="url(#p7045da7ef2)">
     <!-- 220 -->
     <g transform="translate(19159.376204 300.771805)scale(0.01 -0.01)">
      <use xlink:href="#DejaVuSans-50"/>
      <use x="63.623047" xlink:href="#DejaVuSans-50"/>
      <use x="127.246094" xlink:href="#DejaVuSans-48"/>
     </g>
    </g>
   </g>
   <g id="text_44">
    <g clip-path="url(#p7045da7ef2)">
     <!-- 225 -->
     <g transform="translate(20349.458848 241.267673)scale(0.01 -0.01)">
      <use xlink:href="#DejaVuSans-50"/>
      <use x="63.623047" xlink:href="#DejaVuSans-50"/>
      <use x="127.246094" xlink:href="#DejaVuSans-53"/>
     </g>
    </g>
   </g>
   <g id="text_45">
    <g clip-path="url(#p7045da7ef2)">
     <!-- 230 -->
     <g transform="translate(21539.541493 241.267673)scale(0.01 -0.01)">
      <use xlink:href="#DejaVuSans-50"/>
      <use x="63.623047" xlink:href="#DejaVuSans-51"/>
      <use x="127.246094" xlink:href="#DejaVuSans-48"/>
     </g>
    </g>
   </g>
   <g id="text_46">
    <g clip-path="url(#p7045da7ef2)">
     <!-- 236 -->
     <g transform="translate(13208.96298 598.292466)scale(0.01 -0.01)">
      <use xlink:href="#DejaVuSans-50"/>
      <use x="63.623047" xlink:href="#DejaVuSans-51"/>
      <use x="127.246094" xlink:href="#DejaVuSans-54"/>
     </g>
    </g>
   </g>
   <g id="text_47">
    <g clip-path="url(#p7045da7ef2)">
     <!-- 241 -->
     <g transform="translate(14399.045625 538.788334)scale(0.01 -0.01)">
      <use xlink:href="#DejaVuSans-50"/>
      <use x="63.623047" xlink:href="#DejaVuSans-52"/>
      <use x="127.246094" xlink:href="#DejaVuSans-49"/>
     </g>
    </g>
   </g>
   <g id="text_48">
    <g clip-path="url(#p7045da7ef2)">
     <!-- 246 -->
     <g transform="translate(15589.12827 479.284202)scale(0.01 -0.01)">
      <use xlink:href="#DejaVuSans-50"/>
      <use x="63.623047" xlink:href="#DejaVuSans-52"/>
      <use x="127.246094" xlink:href="#DejaVuSans-54"/>
     </g>
    </g>
   </g>
   <g id="text_49">
    <g clip-path="url(#p7045da7ef2)">
     <!-- 251 -->
     <g transform="translate(16779.210914 479.284202)scale(0.01 -0.01)">
      <use xlink:href="#DejaVuSans-50"/>
      <use x="63.623047" xlink:href="#DejaVuSans-53"/>
      <use x="127.246094" xlink:href="#DejaVuSans-49"/>
     </g>
    </g>
   </g>
   <g id="text_50">
    <g clip-path="url(#p7045da7ef2)">
     <!-- 256 -->
     <g transform="translate(17969.293559 419.78007)scale(0.01 -0.01)">
      <use xlink:href="#DejaVuSans-50"/>
      <use x="63.623047" xlink:href="#DejaVuSans-53"/>
      <use x="127.246094" xlink:href="#DejaVuSans-54"/>
     </g>
    </g>
   </g>
   <g id="text_51">
    <g clip-path="url(#p7045da7ef2)">
     <!-- 261 -->
     <g transform="translate(19159.376204 419.78007)scale(0.01 -0.01)">
      <use xlink:href="#DejaVuSans-50"/>
      <use x="63.623047" xlink:href="#DejaVuSans-54"/>
      <use x="127.246094" xlink:href="#DejaVuSans-49"/>
     </g>
    </g>
   </g>
   <g id="text_52">
    <g clip-path="url(#p7045da7ef2)">
     <!-- 266 -->
     <g transform="translate(20349.458848 360.275937)scale(0.01 -0.01)">
      <use xlink:href="#DejaVuSans-50"/>
      <use x="63.623047" xlink:href="#DejaVuSans-54"/>
      <use x="127.246094" xlink:href="#DejaVuSans-54"/>
     </g>
    </g>
   </g>
   <g id="text_53">
    <g clip-path="url(#p7045da7ef2)">
     <!-- 271 -->
     <g transform="translate(21539.541493 360.275937)scale(0.01 -0.01)">
      <use xlink:href="#DejaVuSans-50"/>
      <use x="63.623047" xlink:href="#DejaVuSans-55"/>
      <use x="127.246094" xlink:href="#DejaVuSans-49"/>
     </g>
    </g>
   </g>
   <g id="text_54">
    <g clip-path="url(#p7045da7ef2)">
     <!-- 276 -->
     <g transform="translate(22729.624137 300.771805)scale(0.01 -0.01)">
      <use xlink:href="#DejaVuSans-50"/>
      <use x="63.623047" xlink:href="#DejaVuSans-55"/>
      <use x="127.246094" xlink:href="#DejaVuSans-54"/>
     </g>
    </g>
   </g>
   <g id="text_55">
    <g clip-path="url(#p7045da7ef2)">
     <!-- 281 -->
     <g transform="translate(23919.706782 300.771805)scale(0.01 -0.01)">
      <use xlink:href="#DejaVuSans-50"/>
      <use x="63.623047" xlink:href="#DejaVuSans-56"/>
      <use x="127.246094" xlink:href="#DejaVuSans-49"/>
     </g>
    </g>
   </g>
   <g id="text_56">
    <g clip-path="url(#p7045da7ef2)">
     <!-- 287 -->
     <g transform="translate(14399.045625 657.796599)scale(0.01 -0.01)">
      <use xlink:href="#DejaVuSans-50"/>
      <use x="63.623047" xlink:href="#DejaVuSans-56"/>
      <use x="127.246094" xlink:href="#DejaVuSans-55"/>
     </g>
    </g>
   </g>
   <g id="text_57">
    <g clip-path="url(#p7045da7ef2)">
     <!-- 292 -->
     <g transform="translate(15589.12827 598.292466)scale(0.01 -0.01)">
      <use xlink:href="#DejaVuSans-50"/>
      <use x="63.623047" xlink:href="#DejaVuSans-57"/>
      <use x="127.246094" xlink:href="#DejaVuSans-50"/>
     </g>
    </g>
   </g>
   <g id="text_58">
    <g clip-path="url(#p7045da7ef2)">
     <!-- 297 -->
     <g transform="translate(16779.210914 598.292466)scale(0.01 -0.01)">
      <use xlink:href="#DejaVuSans-50"/>
      <use x="63.623047" xlink:href="#DejaVuSans-57"/>
      <use x="127.246094" xlink:href="#DejaVuSans-55"/>
     </g>
    </g>
   </g>
   <g id="text_59">
    <g clip-path="url(#p7045da7ef2)">
     <!-- 302 -->
     <g transform="translate(17969.293559 538.788334)scale(0.01 -0.01)">
      <use xlink:href="#DejaVuSans-51"/>
      <use x="63.623047" xlink:href="#DejaVuSans-48"/>
      <use x="127.246094" xlink:href="#DejaVuSans-50"/>
     </g>
    </g>
   </g>
   <g id="text_60">
    <g clip-path="url(#p7045da7ef2)">
     <!-- 307 -->
     <g transform="translate(19159.376204 538.788334)scale(0.01 -0.01)">
      <use xlink:href="#DejaVuSans-51"/>
      <use x="63.623047" xlink:href="#DejaVuSans-48"/>
      <use x="127.246094" xlink:href="#DejaVuSans-55"/>
     </g>
    </g>
   </g>
   <g id="text_61">
    <g clip-path="url(#p7045da7ef2)">
     <!-- 312 -->
     <g transform="translate(20349.458848 479.284202)scale(0.01 -0.01)">
      <use xlink:href="#DejaVuSans-51"/>
      <use x="63.623047" xlink:href="#DejaVuSans-49"/>
      <use x="127.246094" xlink:href="#DejaVuSans-50"/>
     </g>
    </g>
   </g>
   <g id="text_62">
    <g clip-path="url(#p7045da7ef2)">
     <!-- 317 -->
     <g transform="translate(21539.541493 479.284202)scale(0.01 -0.01)">
      <use xlink:href="#DejaVuSans-51"/>
      <use x="63.623047" xlink:href="#DejaVuSans-49"/>
      <use x="127.246094" xlink:href="#DejaVuSans-55"/>
     </g>
    </g>
   </g>
   <g id="text_63">
    <g clip-path="url(#p7045da7ef2)">
     <!-- 322 -->
     <g transform="translate(22729.624137 419.78007)scale(0.01 -0.01)">
      <use xlink:href="#DejaVuSans-51"/>
      <use x="63.623047" xlink:href="#DejaVuSans-50"/>
      <use x="127.246094" xlink:href="#DejaVuSans-50"/>
     </g>
    </g>
   </g>
   <g id="text_64">
    <g clip-path="url(#p7045da7ef2)">
     <!-- 327 -->
     <g transform="translate(23919.706782 419.78007)scale(0.01 -0.01)">
      <use xlink:href="#DejaVuSans-51"/>
      <use x="63.623047" xlink:href="#DejaVuSans-50"/>
      <use x="127.246094" xlink:href="#DejaVuSans-55"/>
     </g>
    </g>
   </g>
   <g id="text_65">
    <g clip-path="url(#p7045da7ef2)">
     <!-- 332 -->
     <g transform="translate(25109.789427 360.275937)scale(0.01 -0.01)">
      <use xlink:href="#DejaVuSans-51"/>
      <use x="63.623047" xlink:href="#DejaVuSans-51"/>
      <use x="127.246094" xlink:href="#DejaVuSans-50"/>
     </g>
    </g>
   </g>
   <g id="text_66">
    <g clip-path="url(#p7045da7ef2)">
     <!-- 337 -->
     <g transform="translate(26299.872071 360.275937)scale(0.01 -0.01)">
      <use xlink:href="#DejaVuSans-51"/>
      <use x="63.623047" xlink:href="#DejaVuSans-51"/>
      <use x="127.246094" xlink:href="#DejaVuSans-55"/>
     </g>
    </g>
   </g>
  </g>
 </g>
 <defs>
  <clipPath id="p7045da7ef2">
   <rect height="720" width="28800" x="0" y="0"/>
  </clipPath>
 </defs>
</svg>
